<?xml version="1.0" standalone="no"?>
 <!DOCTYPE svg PUBLIC "-//W3C//DTD SVG 1.1//EN" 
 "http://www.w3.org/Graphics/SVG/1.1/DTD/svg11.dtd"> 
<svg
  xmlns:svg="http://www.w3.org/2000/svg"
  xmlns="http://www.w3.org/2000/svg"
  xmlns:xlink="http://www.w3.org/1999/xlink"
  version="1.1"
  width="13.200380cm" height="11.998960cm" viewBox="0 0 51970 47240">
<title>SVG Picture created as ESP01-Programmer.svg date 2020/07/28 13:22:47 </title>
  <desc>Picture generated by Eeschema-SVG </desc>
<g style="fill:#000000; fill-opacity:1;stroke:#000000; stroke-opacity:1;
stroke-linecap:round; stroke-linejoin:round;"
 transform="translate(0 0) scale(1 1)">
</g>
<g style="fill:#000000; fill-opacity:0.0; 
stroke:#000000; stroke-width:-10; stroke-opacity:1; 
stroke-linecap:round; stroke-linejoin:round;">
</g>
<g style="fill:#840000; fill-opacity:0.0; 
stroke:#840000; stroke-width:-10; stroke-opacity:1; 
stroke-linecap:round; stroke-linejoin:round;">
</g>
<g style="fill:#840000; fill-opacity:0.0; 
stroke:#840000; stroke-width:100; stroke-opacity:1; 
stroke-linecap:round; stroke-linejoin:round;">
</g>
<g style="fill:#840000; fill-opacity:0.0; 
stroke:#840000; stroke-width:60; stroke-opacity:1; 
stroke-linecap:round; stroke-linejoin:round;">
<rect x="4730" y="29920" width="42520" height="12600" rx="0" />
</g>
<g style="fill:#840000; fill-opacity:0.0; 
stroke:#840000; stroke-width:100; stroke-opacity:1; 
stroke-linecap:round; stroke-linejoin:round;">
</g>
<g style="fill:#840000; fill-opacity:0.0; 
stroke:#840000; stroke-width:60; stroke-opacity:1; 
stroke-linecap:round; stroke-linejoin:round;">
<rect x="3940" y="3940" width="44090" height="39360" rx="0" />
</g>
<g style="fill:#840000; fill-opacity:0.0; 
stroke:#840000; stroke-width:100; stroke-opacity:1; 
stroke-linecap:round; stroke-linejoin:round;">
</g>
<g style="fill:#840000; fill-opacity:0.0; 
stroke:#840000; stroke-width:60; stroke-opacity:1; 
stroke-linecap:round; stroke-linejoin:round;">
<rect x="4720" y="4720" width="42530" height="37800" rx="0" />
</g>
<g style="fill:#840000; fill-opacity:0.0; 
stroke:#840000; stroke-width:100; stroke-opacity:1; 
stroke-linecap:round; stroke-linejoin:round;">
</g>
<g style="fill:#840000; fill-opacity:0.0; 
stroke:#840000; stroke-width:60; stroke-opacity:1; 
stroke-linecap:round; stroke-linejoin:round;">
<path d="M23620 4720
L23620 3940
" />
</g>
<g style="fill:#840000; fill-opacity:0.0; 
stroke:#840000; stroke-width:100; stroke-opacity:1; 
stroke-linecap:round; stroke-linejoin:round;">
</g>
<g style="fill:#840000; fill-opacity:0.0; 
stroke:#840000; stroke-width:60; stroke-opacity:1; 
stroke-linecap:round; stroke-linejoin:round;">
<path d="M43310 4720
L43310 3940
" />
</g>
<g style="fill:#840000; fill-opacity:0.0; 
stroke:#840000; stroke-width:100; stroke-opacity:1; 
stroke-linecap:round; stroke-linejoin:round;">
</g>
<g style="fill:#840000; fill-opacity:0.0; 
stroke:#840000; stroke-width:60; stroke-opacity:1; 
stroke-linecap:round; stroke-linejoin:round;">
<text x="13780" y="4580"
textLength="550" font-size="680" lengthAdjust="spacingAndGlyphs"
text-anchor="start" opacity="0">1</text>
<path d="M14190 4560
L13900 4560
" />
<path d="M14050 4560
L14050 4050
L14000 4120
L13950 4170
L13900 4190
" />
</g>
<g style="fill:#840000; fill-opacity:0.0; 
stroke:#840000; stroke-width:100; stroke-opacity:1; 
stroke-linecap:round; stroke-linejoin:round;">
</g>
<g style="fill:#840000; fill-opacity:0.0; 
stroke:#840000; stroke-width:60; stroke-opacity:1; 
stroke-linecap:round; stroke-linejoin:round;">
<text x="33460" y="4580"
textLength="550" font-size="680" lengthAdjust="spacingAndGlyphs"
text-anchor="start" opacity="0">2</text>
<path d="M33580 4090
L33610 4070
L33660 4050
L33780 4050
L33830 4070
L33850 4090
L33870 4140
L33870 4190
L33850 4260
L33560 4560
L33870 4560
" />
</g>
<g style="fill:#840000; fill-opacity:0.0; 
stroke:#840000; stroke-width:100; stroke-opacity:1; 
stroke-linecap:round; stroke-linejoin:round;">
</g>
<g style="fill:#840000; fill-opacity:0.0; 
stroke:#840000; stroke-width:60; stroke-opacity:1; 
stroke-linecap:round; stroke-linejoin:round;">
<path d="M23620 42520
L23620 43300
" />
</g>
<g style="fill:#840000; fill-opacity:0.0; 
stroke:#840000; stroke-width:100; stroke-opacity:1; 
stroke-linecap:round; stroke-linejoin:round;">
</g>
<g style="fill:#840000; fill-opacity:0.0; 
stroke:#840000; stroke-width:60; stroke-opacity:1; 
stroke-linecap:round; stroke-linejoin:round;">
<path d="M43310 42520
L43310 43300
" />
</g>
<g style="fill:#840000; fill-opacity:0.0; 
stroke:#840000; stroke-width:100; stroke-opacity:1; 
stroke-linecap:round; stroke-linejoin:round;">
</g>
<g style="fill:#840000; fill-opacity:0.0; 
stroke:#840000; stroke-width:60; stroke-opacity:1; 
stroke-linecap:round; stroke-linejoin:round;">
<text x="13780" y="43160"
textLength="550" font-size="680" lengthAdjust="spacingAndGlyphs"
text-anchor="start" opacity="0">1</text>
<path d="M14190 43140
L13900 43140
" />
<path d="M14050 43140
L14050 42630
L14000 42700
L13950 42750
L13900 42770
" />
</g>
<g style="fill:#840000; fill-opacity:0.0; 
stroke:#840000; stroke-width:100; stroke-opacity:1; 
stroke-linecap:round; stroke-linejoin:round;">
</g>
<g style="fill:#840000; fill-opacity:0.0; 
stroke:#840000; stroke-width:60; stroke-opacity:1; 
stroke-linecap:round; stroke-linejoin:round;">
<text x="33460" y="43160"
textLength="550" font-size="680" lengthAdjust="spacingAndGlyphs"
text-anchor="start" opacity="0">2</text>
<path d="M33580 42670
L33610 42650
L33660 42630
L33780 42630
L33830 42650
L33850 42670
L33870 42720
L33870 42770
L33850 42840
L33560 43140
L33870 43140
" />
</g>
<g style="fill:#840000; fill-opacity:0.0; 
stroke:#840000; stroke-width:100; stroke-opacity:1; 
stroke-linecap:round; stroke-linejoin:round;">
</g>
<g style="fill:#840000; fill-opacity:0.0; 
stroke:#840000; stroke-width:60; stroke-opacity:1; 
stroke-linecap:round; stroke-linejoin:round;">
<path d="M3940 23620
L4720 23620
" />
</g>
<g style="fill:#840000; fill-opacity:0.0; 
stroke:#840000; stroke-width:100; stroke-opacity:1; 
stroke-linecap:round; stroke-linejoin:round;">
</g>
<g style="fill:#840000; fill-opacity:0.0; 
stroke:#840000; stroke-width:60; stroke-opacity:1; 
stroke-linecap:round; stroke-linejoin:round;">
<text x="4330" y="14030"
textLength="500" font-size="680" lengthAdjust="spacingAndGlyphs"
text-anchor="middle" opacity="0">A</text>
<path d="M4200 13860
L4450 13860
" />
<path d="M4160 14010
L4330 13500
L4500 14010
" />
</g>
<g style="fill:#840000; fill-opacity:0.0; 
stroke:#840000; stroke-width:100; stroke-opacity:1; 
stroke-linecap:round; stroke-linejoin:round;">
</g>
<g style="fill:#840000; fill-opacity:0.0; 
stroke:#840000; stroke-width:60; stroke-opacity:1; 
stroke-linecap:round; stroke-linejoin:round;">
<text x="4330" y="33710"
textLength="570" font-size="680" lengthAdjust="spacingAndGlyphs"
text-anchor="middle" opacity="0">B</text>
<path d="M4360 33420
L4430 33440
L4460 33470
L4480 33520
L4480 33590
L4460 33640
L4430 33660
L4390 33690
L4190 33690
L4190 33180
L4360 33180
L4410 33200
L4430 33220
L4460 33270
L4460 33320
L4430 33370
L4410 33390
L4360 33420
L4190 33420
" />
</g>
<g style="fill:#840000; fill-opacity:0.0; 
stroke:#840000; stroke-width:100; stroke-opacity:1; 
stroke-linecap:round; stroke-linejoin:round;">
</g>
<g style="fill:#840000; fill-opacity:0.0; 
stroke:#840000; stroke-width:60; stroke-opacity:1; 
stroke-linecap:round; stroke-linejoin:round;">
<path d="M48030 23620
L47250 23620
" />
</g>
<g style="fill:#840000; fill-opacity:0.0; 
stroke:#840000; stroke-width:100; stroke-opacity:1; 
stroke-linecap:round; stroke-linejoin:round;">
</g>
<g style="fill:#840000; fill-opacity:0.0; 
stroke:#840000; stroke-width:60; stroke-opacity:1; 
stroke-linecap:round; stroke-linejoin:round;">
<text x="47640" y="14030"
textLength="500" font-size="680" lengthAdjust="spacingAndGlyphs"
text-anchor="middle" opacity="0">A</text>
<path d="M47510 13860
L47760 13860
" />
<path d="M47470 14010
L47640 13500
L47810 14010
" />
</g>
<g style="fill:#840000; fill-opacity:0.0; 
stroke:#840000; stroke-width:100; stroke-opacity:1; 
stroke-linecap:round; stroke-linejoin:round;">
</g>
<g style="fill:#840000; fill-opacity:0.0; 
stroke:#840000; stroke-width:60; stroke-opacity:1; 
stroke-linecap:round; stroke-linejoin:round;">
<text x="47640" y="33710"
textLength="570" font-size="680" lengthAdjust="spacingAndGlyphs"
text-anchor="middle" opacity="0">B</text>
<path d="M47670 33420
L47740 33440
L47770 33470
L47790 33520
L47790 33590
L47770 33640
L47740 33660
L47700 33690
L47500 33690
L47500 33180
L47670 33180
L47720 33200
L47740 33220
L47770 33270
L47770 33320
L47740 33370
L47720 33390
L47670 33420
L47500 33420
" />
</g>
<g style="fill:#840000; fill-opacity:0.0; 
stroke:#840000; stroke-width:100; stroke-opacity:1; 
stroke-linecap:round; stroke-linejoin:round;">
</g>
<g style="fill:#840000; fill-opacity:0.0; 
stroke:#840000; stroke-width:60; stroke-opacity:1; 
stroke-linecap:round; stroke-linejoin:round;">
<text x="13780" y="40880"
textLength="8710" font-size="780" lengthAdjust="spacingAndGlyphs"
text-anchor="start" opacity="0">Date: 2020-07-27</text>
<path d="M13950 40850
L13950 40260
L14090 40260
L14170 40290
L14230 40350
L14250 40400
L14280 40510
L14280 40600
L14250 40710
L14230 40770
L14170 40820
L14090 40850
L13950 40850
" />
<path d="M14790 40850
L14790 40540
L14760 40490
L14700 40460
L14590 40460
L14540 40490
" />
<path d="M14790 40820
L14730 40850
L14590 40850
L14540 40820
L14510 40770
L14510 40710
L14540 40660
L14590 40630
L14730 40630
L14790 40600
" />
<path d="M14990 40460
L15210 40460
" />
<path d="M15070 40260
L15070 40770
L15100 40820
L15150 40850
L15210 40850
" />
<path d="M15630 40820
L15580 40850
L15460 40850
L15410 40820
L15380 40770
L15380 40540
L15410 40490
L15460 40460
L15580 40460
L15630 40490
L15660 40540
L15660 40600
L15380 40660
" />
<path d="M15910 40800
L15940 40820
L15910 40850
L15880 40820
L15910 40800
L15910 40850
" />
<path d="M15910 40490
L15940 40510
L15910 40540
L15880 40510
L15910 40490
L15910 40540
" />
<path d="M16610 40320
L16640 40290
L16700 40260
L16840 40260
L16900 40290
L16920 40320
L16950 40370
L16950 40430
L16920 40510
L16590 40850
L16950 40850
" />
<path d="M17320 40260
L17370 40260
L17430 40290
L17460 40320
L17490 40370
L17510 40490
L17510 40630
L17490 40740
L17460 40800
L17430 40820
L17370 40850
L17320 40850
L17260 40820
L17230 40800
L17200 40740
L17180 40630
L17180 40490
L17200 40370
L17230 40320
L17260 40290
L17320 40260
" />
<path d="M17740 40320
L17770 40290
L17820 40260
L17960 40260
L18020 40290
L18050 40320
L18080 40370
L18080 40430
L18050 40510
L17710 40850
L18080 40850
" />
<path d="M18440 40260
L18500 40260
L18550 40290
L18580 40320
L18610 40370
L18640 40490
L18640 40630
L18610 40740
L18580 40800
L18550 40820
L18500 40850
L18440 40850
L18380 40820
L18360 40800
L18330 40740
L18300 40630
L18300 40490
L18330 40370
L18360 40320
L18380 40290
L18440 40260
" />
<path d="M18890 40630
L19340 40630
" />
<path d="M19730 40260
L19790 40260
L19850 40290
L19870 40320
L19900 40370
L19930 40490
L19930 40630
L19900 40740
L19870 40800
L19850 40820
L19790 40850
L19730 40850
L19680 40820
L19650 40800
L19620 40740
L19590 40630
L19590 40490
L19620 40370
L19650 40320
L19680 40290
L19730 40260
" />
<path d="M20130 40260
L20520 40260
L20270 40850
" />
<path d="M20740 40630
L21190 40630
" />
<path d="M21450 40320
L21480 40290
L21530 40260
L21670 40260
L21730 40290
L21760 40320
L21780 40370
L21780 40430
L21760 40510
L21420 40850
L21780 40850
" />
<path d="M21980 40260
L22370 40260
L22120 40850
" />
</g>
<g style="fill:#840000; fill-opacity:0.0; 
stroke:#840000; stroke-width:100; stroke-opacity:1; 
stroke-linecap:round; stroke-linejoin:round;">
</g>
<g style="fill:#840000; fill-opacity:0.0; 
stroke:#840000; stroke-width:60; stroke-opacity:1; 
stroke-linecap:round; stroke-linejoin:round;">
<path d="M4730 41140
L47250 41140
" />
</g>
<g style="fill:#840000; fill-opacity:0.0; 
stroke:#840000; stroke-width:100; stroke-opacity:1; 
stroke-linecap:round; stroke-linejoin:round;">
</g>
<g style="fill:#840000; fill-opacity:0.0; 
stroke:#840000; stroke-width:60; stroke-opacity:1; 
stroke-linecap:round; stroke-linejoin:round;">
<text x="5120" y="41980"
textLength="11440" font-size="780" lengthAdjust="spacingAndGlyphs"
text-anchor="start" opacity="0">KiCad E.D.A.  kicad 5.1.6</text>
<path d="M5290 41950
L5290 41360
" />
<path d="M5620 41950
L5370 41610
" />
<path d="M5620 41360
L5290 41700
" />
<path d="M5880 41950
L5880 41560
" />
<path d="M5880 41360
L5850 41390
L5880 41420
L5900 41390
L5880 41360
L5880 41420
" />
<path d="M6490 41900
L6470 41920
L6380 41950
L6330 41950
L6240 41920
L6180 41870
L6160 41810
L6130 41700
L6130 41610
L6160 41500
L6180 41450
L6240 41390
L6330 41360
L6380 41360
L6470 41390
L6490 41420
" />
<path d="M7000 41950
L7000 41640
L6970 41590
L6920 41560
L6800 41560
L6750 41590
" />
<path d="M7000 41920
L6940 41950
L6800 41950
L6750 41920
L6720 41870
L6720 41810
L6750 41760
L6800 41730
L6940 41730
L7000 41700
" />
<path d="M7530 41950
L7530 41360
" />
<path d="M7530 41920
L7480 41950
L7360 41950
L7310 41920
L7280 41900
L7250 41840
L7250 41670
L7280 41610
L7310 41590
L7360 41560
L7480 41560
L7530 41590
" />
<path d="M8260 41640
L8460 41640
" />
<path d="M8540 41950
L8260 41950
L8260 41360
L8540 41360
" />
<path d="M8800 41900
L8830 41920
L8800 41950
L8770 41920
L8800 41900
L8800 41950
" />
<path d="M9080 41950
L9080 41360
L9220 41360
L9300 41390
L9360 41450
L9390 41500
L9420 41610
L9420 41700
L9390 41810
L9360 41870
L9300 41920
L9220 41950
L9080 41950
" />
<path d="M9670 41900
L9700 41920
L9670 41950
L9640 41920
L9670 41900
L9670 41950
" />
<path d="M9920 41780
L10200 41780
" />
<path d="M9860 41950
L10060 41360
L10260 41950
" />
<path d="M10460 41900
L10480 41920
L10460 41950
L10430 41920
L10460 41900
L10460 41950
" />
<path d="M11640 41950
L11640 41360
" />
<path d="M11690 41730
L11860 41950
" />
<path d="M11860 41560
L11640 41780
" />
<path d="M12110 41950
L12110 41560
" />
<path d="M12110 41360
L12080 41390
L12110 41420
L12140 41390
L12110 41360
L12110 41420
" />
<path d="M12650 41920
L12590 41950
L12480 41950
L12420 41920
L12390 41900
L12370 41840
L12370 41670
L12390 41610
L12420 41590
L12480 41560
L12590 41560
L12650 41590
" />
<path d="M13150 41950
L13150 41640
L13120 41590
L13070 41560
L12960 41560
L12900 41590
" />
<path d="M13150 41920
L13100 41950
L12960 41950
L12900 41920
L12870 41870
L12870 41810
L12900 41760
L12960 41730
L13100 41730
L13150 41700
" />
<path d="M13690 41950
L13690 41360
" />
<path d="M13690 41920
L13630 41950
L13520 41950
L13460 41920
L13430 41900
L13400 41840
L13400 41670
L13430 41610
L13460 41590
L13520 41560
L13630 41560
L13690 41590
" />
<path d="M14700 41360
L14420 41360
L14390 41640
L14420 41610
L14470 41590
L14610 41590
L14670 41610
L14700 41640
L14730 41700
L14730 41840
L14700 41900
L14670 41920
L14610 41950
L14470 41950
L14420 41920
L14390 41900
" />
<path d="M14980 41900
L15010 41920
L14980 41950
L14950 41920
L14980 41900
L14980 41950
" />
<path d="M15570 41950
L15230 41950
" />
<path d="M15400 41950
L15400 41360
L15340 41450
L15290 41500
L15230 41530
" />
<path d="M15820 41900
L15850 41920
L15820 41950
L15790 41920
L15820 41900
L15820 41950
" />
<path d="M16350 41360
L16240 41360
L16190 41390
L16160 41420
L16100 41500
L16070 41610
L16070 41840
L16100 41900
L16130 41920
L16190 41950
L16300 41950
L16350 41920
L16380 41900
L16410 41840
L16410 41700
L16380 41640
L16350 41610
L16300 41590
L16190 41590
L16130 41610
L16100 41640
L16070 41700
" />
</g>
<g style="fill:#840000; fill-opacity:0.0; 
stroke:#840000; stroke-width:100; stroke-opacity:1; 
stroke-linecap:round; stroke-linejoin:round;">
</g>
<g style="fill:#840000; fill-opacity:0.0; 
stroke:#840000; stroke-width:60; stroke-opacity:1; 
stroke-linecap:round; stroke-linejoin:round;">
<path d="M4730 39960
L47250 39960
" />
</g>
<g style="fill:#840000; fill-opacity:0.0; 
stroke:#840000; stroke-width:100; stroke-opacity:1; 
stroke-linecap:round; stroke-linejoin:round;">
</g>
<g style="fill:#840000; fill-opacity:0.0; 
stroke:#840000; stroke-width:120; stroke-opacity:1; 
stroke-linecap:round; stroke-linejoin:round;">
<text x="38580" y="40880"
textLength="3740" font-size="780" lengthAdjust="spacingAndGlyphs"
text-anchor="start" opacity="0">Rev: 1.0</text>
<path d="M39130 40850
L38930 40570
" />
<path d="M38790 40850
L38790 40260
L39020 40260
L39070 40290
L39100 40320
L39130 40370
L39130 40460
L39100 40510
L39070 40540
L39020 40570
L38790 40570
" />
<path d="M39610 40820
L39550 40850
L39440 40850
L39380 40820
L39360 40770
L39360 40540
L39380 40490
L39440 40460
L39550 40460
L39610 40490
L39640 40540
L39640 40600
L39360 40660
" />
<path d="M39830 40460
L39970 40850
L40110 40460
" />
<path d="M40340 40800
L40370 40820
L40340 40850
L40310 40820
L40340 40800
L40340 40850
" />
<path d="M40340 40490
L40370 40510
L40340 40540
L40310 40510
L40340 40490
L40340 40540
" />
<path d="M41380 40850
L41040 40850
" />
<path d="M41210 40850
L41210 40260
L41150 40350
L41100 40400
L41040 40430
" />
<path d="M41630 40800
L41660 40820
L41630 40850
L41600 40820
L41630 40800
L41630 40850
" />
<path d="M42020 40260
L42080 40260
L42140 40290
L42160 40320
L42190 40370
L42220 40490
L42220 40630
L42190 40740
L42160 40800
L42140 40820
L42080 40850
L42020 40850
L41970 40820
L41940 40800
L41910 40740
L41880 40630
L41880 40490
L41910 40370
L41940 40320
L41970 40290
L42020 40260
" />
</g>
<g style="fill:#840000; fill-opacity:0.0; 
stroke:#840000; stroke-width:100; stroke-opacity:1; 
stroke-linecap:round; stroke-linejoin:round;">
</g>
<g style="fill:#840000; fill-opacity:0.0; 
stroke:#840000; stroke-width:60; stroke-opacity:1; 
stroke-linecap:round; stroke-linejoin:round;">
<text x="5120" y="40880"
textLength="4680" font-size="780" lengthAdjust="spacingAndGlyphs"
text-anchor="start" opacity="0">Size: User</text>
<path d="M5260 40820
L5340 40850
L5480 40850
L5540 40820
L5570 40800
L5590 40740
L5590 40680
L5570 40630
L5540 40600
L5480 40570
L5370 40540
L5310 40510
L5290 40490
L5260 40430
L5260 40370
L5290 40320
L5310 40290
L5370 40260
L5510 40260
L5590 40290
" />
<path d="M5850 40850
L5850 40460
" />
<path d="M5850 40260
L5820 40290
L5850 40320
L5880 40290
L5850 40260
L5850 40320
" />
<path d="M6070 40460
L6380 40460
L6070 40850
L6380 40850
" />
<path d="M6830 40820
L6770 40850
L6660 40850
L6610 40820
L6580 40770
L6580 40540
L6610 40490
L6660 40460
L6770 40460
L6830 40490
L6860 40540
L6860 40600
L6580 40660
" />
<path d="M7110 40800
L7140 40820
L7110 40850
L7080 40820
L7110 40800
L7110 40850
" />
<path d="M7110 40490
L7140 40510
L7110 40540
L7080 40510
L7110 40490
L7110 40540
" />
<path d="M7840 40260
L7840 40740
L7870 40800
L7900 40820
L7950 40850
L8070 40850
L8120 40820
L8150 40800
L8180 40740
L8180 40260
" />
<path d="M8430 40820
L8490 40850
L8600 40850
L8660 40820
L8690 40770
L8690 40740
L8660 40680
L8600 40660
L8520 40660
L8460 40630
L8430 40570
L8430 40540
L8460 40490
L8520 40460
L8600 40460
L8660 40490
" />
<path d="M9160 40820
L9110 40850
L8990 40850
L8940 40820
L8910 40770
L8910 40540
L8940 40490
L8990 40460
L9110 40460
L9160 40490
L9190 40540
L9190 40600
L8910 40660
" />
<path d="M9440 40850
L9440 40460
" />
<path d="M9440 40570
L9470 40510
L9500 40490
L9560 40460
L9610 40460
" />
</g>
<g style="fill:#840000; fill-opacity:0.0; 
stroke:#840000; stroke-width:100; stroke-opacity:1; 
stroke-linecap:round; stroke-linejoin:round;">
</g>
<g style="fill:#840000; fill-opacity:0.0; 
stroke:#840000; stroke-width:60; stroke-opacity:1; 
stroke-linecap:round; stroke-linejoin:round;">
<text x="38580" y="41980"
textLength="3350" font-size="780" lengthAdjust="spacingAndGlyphs"
text-anchor="start" opacity="0">Id: 1/1</text>
<path d="M38750 41950
L38750 41360
" />
<path d="M39280 41950
L39280 41360
" />
<path d="M39280 41920
L39220 41950
L39110 41950
L39050 41920
L39030 41900
L39000 41840
L39000 41670
L39030 41610
L39050 41590
L39110 41560
L39220 41560
L39280 41590
" />
<path d="M39560 41900
L39590 41920
L39560 41950
L39530 41920
L39560 41900
L39560 41950
" />
<path d="M39560 41590
L39590 41610
L39560 41640
L39530 41610
L39560 41590
L39560 41640
" />
<path d="M40600 41950
L40260 41950
" />
<path d="M40430 41950
L40430 41360
L40380 41450
L40320 41500
L40260 41530
" />
<path d="M41270 41330
L40770 42090
" />
<path d="M41780 41950
L41440 41950
" />
<path d="M41610 41950
L41610 41360
L41560 41450
L41500 41500
L41440 41530
" />
</g>
<g style="fill:#840000; fill-opacity:0.0; 
stroke:#840000; stroke-width:100; stroke-opacity:1; 
stroke-linecap:round; stroke-linejoin:round;">
</g>
<g style="fill:#840000; fill-opacity:0.0; 
stroke:#840000; stroke-width:60; stroke-opacity:1; 
stroke-linecap:round; stroke-linejoin:round;">
<path d="M4730 38380
L47250 38380
" />
</g>
<g style="fill:#840000; fill-opacity:0.0; 
stroke:#840000; stroke-width:100; stroke-opacity:1; 
stroke-linecap:round; stroke-linejoin:round;">
</g>
<g style="fill:#840000; fill-opacity:0.0; 
stroke:#840000; stroke-width:160; stroke-opacity:1; 
stroke-linecap:round; stroke-linejoin:round;">
<text x="5120" y="39480"
textLength="16240" font-size="1050" lengthAdjust="spacingAndGlyphs"
text-anchor="start" opacity="0">Title: ESP-01 Programmer</text>
<path d="M5400 38650
L5850 38650
" />
<path d="M5520 39440
L5620 38650
" />
<path d="M6010 39440
L6080 38920
" />
<path d="M6110 38650
L6070 38690
L6100 38730
L6150 38690
L6110 38650
L6100 38730
" />
<path d="M6340 38920
L6640 38920
" />
<path d="M6490 38650
L6400 39330
L6430 39400
L6500 39440
L6580 39440
" />
<path d="M6950 39440
L6880 39400
L6860 39330
L6940 38650
" />
<path d="M7560 39400
L7480 39440
L7330 39440
L7260 39400
L7230 39330
L7270 39030
L7320 38950
L7400 38920
L7550 38920
L7620 38950
L7650 39030
L7640 39100
L7250 39180
" />
<path d="M7940 39370
L7970 39400
L7930 39440
L7900 39400
L7940 39370
L7930 39440
" />
<path d="M7990 38950
L8030 38990
L7980 39030
L7950 38990
L7990 38950
L7980 39030
" />
<path d="M8960 39030
L9230 39030
" />
<path d="M9290 39440
L8910 39440
L9010 38650
L9390 38650
" />
<path d="M9590 39400
L9700 39440
L9890 39440
L9970 39400
L10010 39370
L10060 39290
L10070 39220
L10040 39140
L10010 39100
L9940 39070
L9790 39030
L9720 38990
L9690 38950
L9660 38880
L9670 38800
L9710 38730
L9760 38690
L9840 38650
L10020 38650
L10130 38690
" />
<path d="M10380 39440
L10480 38650
L10780 38650
L10850 38690
L10880 38730
L10910 38800
L10890 38920
L10850 38990
L10810 39030
L10730 39070
L10420 39070
" />
<path d="M11210 39140
L11810 39140
" />
<path d="M12390 38650
L12470 38650
L12540 38690
L12570 38730
L12600 38800
L12620 38950
L12600 39140
L12540 39290
L12490 39370
L12450 39400
L12370 39440
L12300 39440
L12230 39400
L12190 39370
L12160 39290
L12150 39140
L12170 38950
L12230 38800
L12270 38730
L12310 38690
L12390 38650
" />
<path d="M13310 39440
L12860 39440
" />
<path d="M13090 39440
L13180 38650
L13100 38770
L13010 38840
L12930 38880
" />
<path d="M14250 39440
L14350 38650
L14650 38650
L14720 38690
L14760 38730
L14780 38800
L14770 38920
L14720 38990
L14680 39030
L14600 39070
L14300 39070
" />
<path d="M15040 39440
L15110 38920
" />
<path d="M15090 39070
L15140 38990
L15180 38950
L15260 38920
L15330 38920
" />
<path d="M15640 39440
L15570 39400
L15540 39370
L15510 39290
L15540 39070
L15590 38990
L15630 38950
L15710 38920
L15820 38920
L15890 38950
L15930 38990
L15950 39070
L15930 39290
L15880 39370
L15840 39400
L15760 39440
L15640 39440
" />
<path d="M16650 38920
L16570 39560
L16520 39630
L16480 39670
L16400 39710
L16290 39710
L16220 39670
" />
<path d="M16590 39400
L16510 39440
L16360 39440
L16290 39400
L16260 39370
L16230 39290
L16260 39070
L16300 38990
L16340 38950
L16420 38920
L16580 38920
L16650 38950
" />
<path d="M16960 39440
L17030 38920
" />
<path d="M17010 39070
L17050 38990
L17100 38950
L17180 38920
L17250 38920
" />
<path d="M17790 39440
L17840 39030
L17810 38950
L17740 38920
L17590 38920
L17510 38950
" />
<path d="M17790 39400
L17710 39440
L17530 39440
L17450 39400
L17430 39330
L17440 39250
L17480 39180
L17560 39140
L17750 39140
L17830 39100
" />
<path d="M18160 39440
L18230 38920
" />
<path d="M18220 38990
L18260 38950
L18340 38920
L18460 38920
L18530 38950
L18550 39030
L18500 39440
" />
<path d="M18550 39030
L18600 38950
L18680 38920
L18790 38920
L18870 38950
L18890 39030
L18840 39440
" />
<path d="M19220 39440
L19280 38920
" />
<path d="M19270 38990
L19320 38950
L19400 38920
L19510 38920
L19580 38950
L19610 39030
L19560 39440
" />
<path d="M19610 39030
L19660 38950
L19740 38920
L19850 38920
L19920 38950
L19950 39030
L19900 39440
" />
<path d="M20580 39400
L20500 39440
L20350 39440
L20280 39400
L20250 39330
L20290 39030
L20330 38950
L20410 38920
L20560 38920
L20630 38950
L20660 39030
L20650 39100
L20270 39180
" />
<path d="M20950 39440
L21010 38920
" />
<path d="M21000 39070
L21040 38990
L21080 38950
L21160 38920
L21240 38920
" />
</g>
<g style="fill:#840000; fill-opacity:0.0; 
stroke:#840000; stroke-width:100; stroke-opacity:1; 
stroke-linecap:round; stroke-linejoin:round;">
</g>
<g style="fill:#840000; fill-opacity:0.0; 
stroke:#840000; stroke-width:60; stroke-opacity:1; 
stroke-linecap:round; stroke-linejoin:round;">
<text x="5120" y="37960"
textLength="13240" font-size="780" lengthAdjust="spacingAndGlyphs"
text-anchor="start" opacity="0">File: ESP01-Programmer.sch</text>
<path d="M5480 37620
L5290 37620
" />
<path d="M5290 37930
L5290 37340
L5570 37340
" />
<path d="M5790 37930
L5790 37540
" />
<path d="M5790 37340
L5760 37370
L5790 37400
L5820 37370
L5790 37340
L5790 37400
" />
<path d="M6160 37930
L6100 37900
L6070 37850
L6070 37340
" />
<path d="M6610 37900
L6550 37930
L6440 37930
L6380 37900
L6350 37850
L6350 37620
L6380 37570
L6440 37540
L6550 37540
L6610 37570
L6630 37620
L6630 37680
L6350 37740
" />
<path d="M6890 37880
L6920 37900
L6890 37930
L6860 37900
L6890 37880
L6890 37930
" />
<path d="M6890 37570
L6920 37590
L6890 37620
L6860 37590
L6890 37570
L6890 37620
" />
<path d="M7620 37620
L7810 37620
" />
<path d="M7900 37930
L7620 37930
L7620 37340
L7900 37340
" />
<path d="M8120 37900
L8210 37930
L8350 37930
L8400 37900
L8430 37880
L8460 37820
L8460 37760
L8430 37710
L8400 37680
L8350 37650
L8240 37620
L8180 37590
L8150 37570
L8120 37510
L8120 37450
L8150 37400
L8180 37370
L8240 37340
L8380 37340
L8460 37370
" />
<path d="M8710 37930
L8710 37340
L8940 37340
L8990 37370
L9020 37400
L9050 37450
L9050 37540
L9020 37590
L8990 37620
L8940 37650
L8710 37650
" />
<path d="M9420 37340
L9470 37340
L9530 37370
L9560 37400
L9580 37450
L9610 37570
L9610 37710
L9580 37820
L9560 37880
L9530 37900
L9470 37930
L9420 37930
L9360 37900
L9330 37880
L9300 37820
L9280 37710
L9280 37570
L9300 37450
L9330 37400
L9360 37370
L9420 37340
" />
<path d="M10170 37930
L9840 37930
" />
<path d="M10010 37930
L10010 37340
L9950 37430
L9890 37480
L9840 37510
" />
<path d="M10430 37710
L10880 37710
" />
<path d="M11160 37930
L11160 37340
L11380 37340
L11440 37370
L11470 37400
L11490 37450
L11490 37540
L11470 37590
L11440 37620
L11380 37650
L11160 37650
" />
<path d="M11750 37930
L11750 37540
" />
<path d="M11750 37650
L11780 37590
L11800 37570
L11860 37540
L11920 37540
" />
<path d="M12200 37930
L12140 37900
L12110 37880
L12080 37820
L12080 37650
L12110 37590
L12140 37570
L12200 37540
L12280 37540
L12340 37570
L12370 37590
L12390 37650
L12390 37820
L12370 37880
L12340 37900
L12280 37930
L12200 37930
" />
<path d="M12900 37540
L12900 38020
L12870 38070
L12840 38100
L12790 38130
L12700 38130
L12650 38100
" />
<path d="M12900 37900
L12840 37930
L12730 37930
L12670 37900
L12650 37880
L12620 37820
L12620 37650
L12650 37590
L12670 37570
L12730 37540
L12840 37540
L12900 37570
" />
<path d="M13180 37930
L13180 37540
" />
<path d="M13180 37650
L13210 37590
L13240 37570
L13290 37540
L13350 37540
" />
<path d="M13800 37930
L13800 37620
L13770 37570
L13710 37540
L13600 37540
L13550 37570
" />
<path d="M13800 37900
L13740 37930
L13600 37930
L13550 37900
L13520 37850
L13520 37790
L13550 37740
L13600 37710
L13740 37710
L13800 37680
" />
<path d="M14080 37930
L14080 37540
" />
<path d="M14080 37590
L14110 37570
L14160 37540
L14250 37540
L14300 37570
L14330 37620
L14330 37930
" />
<path d="M14330 37620
L14360 37570
L14420 37540
L14500 37540
L14560 37570
L14590 37620
L14590 37930
" />
<path d="M14870 37930
L14870 37540
" />
<path d="M14870 37590
L14890 37570
L14950 37540
L15030 37540
L15090 37570
L15120 37620
L15120 37930
" />
<path d="M15120 37620
L15150 37570
L15200 37540
L15290 37540
L15340 37570
L15370 37620
L15370 37930
" />
<path d="M15880 37900
L15820 37930
L15710 37930
L15650 37900
L15620 37850
L15620 37620
L15650 37570
L15710 37540
L15820 37540
L15880 37570
L15910 37620
L15910 37680
L15620 37740
" />
<path d="M16160 37930
L16160 37540
" />
<path d="M16160 37650
L16190 37590
L16210 37570
L16270 37540
L16330 37540
" />
<path d="M16520 37880
L16550 37900
L16520 37930
L16500 37900
L16520 37880
L16520 37930
" />
<path d="M16780 37900
L16830 37930
L16950 37930
L17000 37900
L17030 37850
L17030 37820
L17000 37760
L16950 37740
L16860 37740
L16800 37710
L16780 37650
L16780 37620
L16800 37570
L16860 37540
L16950 37540
L17000 37570
" />
<path d="M17540 37900
L17480 37930
L17370 37930
L17310 37900
L17280 37880
L17250 37820
L17250 37650
L17280 37590
L17310 37570
L17370 37540
L17480 37540
L17540 37570
" />
<path d="M17790 37930
L17790 37340
" />
<path d="M18040 37930
L18040 37620
L18010 37570
L17960 37540
L17870 37540
L17820 37570
L17790 37590
" />
</g>
<g style="fill:#840000; fill-opacity:0.0; 
stroke:#840000; stroke-width:100; stroke-opacity:1; 
stroke-linecap:round; stroke-linejoin:round;">
</g>
<g style="fill:#840000; fill-opacity:0.0; 
stroke:#840000; stroke-width:60; stroke-opacity:1; 
stroke-linecap:round; stroke-linejoin:round;">
<path d="M4730 36020
L47250 36020
" />
</g>
<g style="fill:#840000; fill-opacity:0.0; 
stroke:#840000; stroke-width:100; stroke-opacity:1; 
stroke-linecap:round; stroke-linejoin:round;">
</g>
<g style="fill:#840000; fill-opacity:0.0; 
stroke:#840000; stroke-width:60; stroke-opacity:1; 
stroke-linecap:round; stroke-linejoin:round;">
<text x="5120" y="36900"
textLength="3850" font-size="780" lengthAdjust="spacingAndGlyphs"
text-anchor="start" opacity="0">Sheet: /</text>
<path d="M5260 36840
L5340 36870
L5480 36870
L5540 36840
L5570 36820
L5590 36760
L5590 36700
L5570 36650
L5540 36620
L5480 36590
L5370 36560
L5310 36530
L5290 36510
L5260 36450
L5260 36390
L5290 36340
L5310 36310
L5370 36280
L5510 36280
L5590 36310
" />
<path d="M5850 36870
L5850 36280
" />
<path d="M6100 36870
L6100 36560
L6070 36510
L6020 36480
L5930 36480
L5880 36510
L5850 36530
" />
<path d="M6610 36840
L6550 36870
L6440 36870
L6380 36840
L6350 36790
L6350 36560
L6380 36510
L6440 36480
L6550 36480
L6610 36510
L6630 36560
L6630 36620
L6350 36680
" />
<path d="M7110 36840
L7060 36870
L6940 36870
L6890 36840
L6860 36790
L6860 36560
L6890 36510
L6940 36480
L7060 36480
L7110 36510
L7140 36560
L7140 36620
L6860 36680
" />
<path d="M7310 36480
L7530 36480
" />
<path d="M7390 36280
L7390 36790
L7420 36840
L7480 36870
L7530 36870
" />
<path d="M7730 36820
L7760 36840
L7730 36870
L7700 36840
L7730 36820
L7730 36870
" />
<path d="M7730 36510
L7760 36530
L7730 36560
L7700 36530
L7730 36510
L7730 36560
" />
<path d="M8880 36250
L8380 37010
" />
</g>
<g style="fill:#840000; fill-opacity:0.0; 
stroke:#840000; stroke-width:100; stroke-opacity:1; 
stroke-linecap:round; stroke-linejoin:round;">
</g>
<g style="fill:#840000; fill-opacity:0.0; 
stroke:#840000; stroke-width:60; stroke-opacity:1; 
stroke-linecap:round; stroke-linejoin:round;">
<path d="M12600 39960
L12600 41140
" />
</g>
<g style="fill:#840000; fill-opacity:0.0; 
stroke:#840000; stroke-width:100; stroke-opacity:1; 
stroke-linecap:round; stroke-linejoin:round;">
</g>
<g style="fill:#840000; fill-opacity:0.0; 
stroke:#840000; stroke-width:60; stroke-opacity:1; 
stroke-linecap:round; stroke-linejoin:round;">
<path d="M37800 39960
L37800 42520
" />
</g>
<g style="fill:#840000; fill-opacity:0.0; 
stroke:#840000; stroke-width:0; stroke-opacity:1; 
stroke-linecap:round; stroke-linejoin:round;">
<g >
</g>
<g style="fill:#FFFFC2; fill-opacity:0.0; 
stroke:#FFFFC2; stroke-width:0; stroke-opacity:1; 
stroke-linecap:round; stroke-linejoin:round;">
</g>
<g style="fill:#FFFFC2; fill-opacity:0.6; 
stroke:#FFFFC2; stroke-width:0; stroke-opacity:1; 
stroke-linecap:round; stroke-linejoin:round;">
<rect x="37000" y="12500" width="1000" height="6000" rx="0" />
</g>
<g style="fill:#840000; fill-opacity:0.6; 
stroke:#840000; stroke-width:0; stroke-opacity:1; 
stroke-linecap:round; stroke-linejoin:round;">
</g>
<g style="fill:#840000; fill-opacity:0.0; 
stroke:#840000; stroke-width:100; stroke-opacity:1; 
stroke-linecap:round; stroke-linejoin:round;">
<rect x="37000" y="12500" width="1000" height="6000" rx="0" />
</g>
<g style="fill:#840000; fill-opacity:0.0; 
stroke:#840000; stroke-width:60; stroke-opacity:1; 
stroke-linecap:round; stroke-linejoin:round;">
<rect x="37000" y="16950" width="500" height="100" rx="0" />
<rect x="37000" y="17950" width="500" height="100" rx="0" />
<rect x="37000" y="15950" width="500" height="100" rx="0" />
<rect x="37000" y="13950" width="500" height="100" rx="0" />
<rect x="37000" y="12950" width="500" height="100" rx="0" />
</g>
<g style="fill:#840000; fill-opacity:0.0; 
stroke:#840000; stroke-width:100; stroke-opacity:1; 
stroke-linecap:round; stroke-linejoin:round;">
<rect x="37000" y="12500" width="1000" height="6000" rx="0" />
</g>
<g style="fill:#840000; fill-opacity:0.0; 
stroke:#840000; stroke-width:60; stroke-opacity:1; 
stroke-linecap:round; stroke-linejoin:round;">
<rect x="37000" y="14950" width="500" height="100" rx="0" />
<path d="M37000 13000
L35500 13000
" />
<text x="36250" y="12900"
textLength="540" font-size="660" lengthAdjust="spacingAndGlyphs"
text-anchor="middle" opacity="0">1</text>
<path d="M36390 12870
L36100 12870
" />
<path d="M36250 12870
L36250 12370
L36200 12440
L36150 12490
L36100 12510
" />
<path d="M37000 14000
L35500 14000
" />
<text x="36250" y="13900"
textLength="540" font-size="660" lengthAdjust="spacingAndGlyphs"
text-anchor="middle" opacity="0">2</text>
<path d="M36100 13420
L36130 13400
L36170 13370
L36290 13370
L36340 13400
L36360 13420
L36390 13470
L36390 13510
L36360 13590
L36080 13870
L36390 13870
" />
<path d="M37000 15000
L35500 15000
" />
<text x="36250" y="14900"
textLength="540" font-size="660" lengthAdjust="spacingAndGlyphs"
text-anchor="middle" opacity="0">3</text>
<path d="M36080 14370
L36390 14370
L36220 14560
L36290 14560
L36340 14590
L36360 14610
L36390 14660
L36390 14780
L36360 14820
L36340 14850
L36290 14870
L36150 14870
L36100 14850
L36080 14820
" />
<path d="M37000 16000
L35500 16000
" />
<text x="36250" y="15900"
textLength="540" font-size="660" lengthAdjust="spacingAndGlyphs"
text-anchor="middle" opacity="0">4</text>
<path d="M36340 15540
L36340 15870
" />
<path d="M36220 15350
L36100 15700
L36410 15700
" />
<path d="M37000 17000
L35500 17000
" />
<text x="36250" y="16900"
textLength="540" font-size="660" lengthAdjust="spacingAndGlyphs"
text-anchor="middle" opacity="0">5</text>
<path d="M36360 16370
L36130 16370
L36100 16610
L36130 16590
L36170 16560
L36290 16560
L36340 16590
L36360 16610
L36390 16660
L36390 16780
L36360 16820
L36340 16850
L36290 16870
L36170 16870
L36130 16850
L36100 16820
" />
<path d="M37000 18000
L35500 18000
" />
<text x="36250" y="17900"
textLength="540" font-size="660" lengthAdjust="spacingAndGlyphs"
text-anchor="middle" opacity="0">6</text>
<path d="M36340 17370
L36250 17370
L36200 17400
L36170 17420
L36130 17490
L36100 17590
L36100 17780
L36130 17820
L36150 17850
L36200 17870
L36290 17870
L36340 17850
L36360 17820
L36390 17780
L36390 17660
L36360 17610
L36340 17590
L36290 17560
L36200 17560
L36150 17590
L36130 17610
L36100 17660
" />
</g>
<g style="fill:#008484; fill-opacity:0.0; 
stroke:#008484; stroke-width:60; stroke-opacity:1; 
stroke-linecap:round; stroke-linejoin:round;">
<text x="38760" y="15350"
textLength="920" font-size="660" lengthAdjust="spacingAndGlyphs"
text-anchor="middle" opacity="0">J2</text>
<path d="M38590 14820
L38590 15180
L38560 15250
L38520 15300
L38450 15320
L38400 15320
" />
<path d="M38800 14870
L38830 14850
L38870 14820
L38990 14820
L39040 14850
L39060 14870
L39090 14920
L39090 14960
L39060 15040
L38780 15320
L39090 15320
" />
<text x="39100" y="16260"
textLength="1610" font-size="660" lengthAdjust="spacingAndGlyphs"
text-anchor="middle" opacity="0">FTDI</text>
<path d="M38610 15970
L38440 15970
" />
<path d="M38440 16230
L38440 15730
L38680 15730
" />
<path d="M38800 15730
L39080 15730
" />
<path d="M38940 16230
L38940 15730
" />
<path d="M39250 16230
L39250 15730
L39370 15730
L39440 15760
L39490 15800
L39510 15850
L39540 15950
L39540 16020
L39510 16110
L39490 16160
L39440 16210
L39370 16230
L39250 16230
" />
<path d="M39750 16230
L39750 15730
" />
</g>
</g>
<g style="fill:#008484; fill-opacity:0.0; 
stroke:#008484; stroke-width:0; stroke-opacity:1; 
stroke-linecap:round; stroke-linejoin:round;">
<g >
</g>
<g style="fill:#840000; fill-opacity:0.0; 
stroke:#840000; stroke-width:0; stroke-opacity:1; 
stroke-linecap:round; stroke-linejoin:round;">
</g>
<g style="fill:#840000; fill-opacity:0.0; 
stroke:#840000; stroke-width:60; stroke-opacity:1; 
stroke-linecap:round; stroke-linejoin:round;">
<path style="fill:#840000; fill-opacity:0.0; 
stroke:#840000; stroke-width:60; stroke-opacity:1; 
stroke-linecap:round; stroke-linejoin:round;fill:none"
d="M 23500,9500
23500,9000
23000,9000
23500,8500
24000,9000
23500,9000
" /> 
</g>
<g style="fill:#008484; fill-opacity:0.0; 
stroke:#008484; stroke-width:60; stroke-opacity:1; 
stroke-linecap:round; stroke-linejoin:round;">
<text x="23450" y="7990"
textLength="1580" font-size="660" lengthAdjust="spacingAndGlyphs"
text-anchor="middle" opacity="0">GND</text>
<path d="M23060 7490
L23020 7460
L22950 7460
L22870 7490
L22830 7530
L22800 7580
L22780 7680
L22780 7750
L22800 7840
L22830 7890
L22870 7940
L22950 7960
L22990 7960
L23060 7940
L23090 7910
L23090 7750
L22990 7750
" />
<path d="M23300 7960
L23300 7460
L23590 7960
L23590 7460
" />
<path d="M23830 7960
L23830 7460
L23950 7460
L24020 7490
L24060 7530
L24090 7580
L24110 7680
L24110 7750
L24090 7840
L24060 7890
L24020 7940
L23950 7960
L23830 7960
" />
</g>
</g>
<g style="fill:#008484; fill-opacity:0.0; 
stroke:#008484; stroke-width:0; stroke-opacity:1; 
stroke-linecap:round; stroke-linejoin:round;">
<g >
</g>
<g style="fill:#840000; fill-opacity:0.0; 
stroke:#840000; stroke-width:0; stroke-opacity:1; 
stroke-linecap:round; stroke-linejoin:round;">
</g>
<g style="fill:#840000; fill-opacity:0.0; 
stroke:#840000; stroke-width:60; stroke-opacity:1; 
stroke-linecap:round; stroke-linejoin:round;">
<path d="M12600.4 19500.3 A1000 1000 0.0 0 0 11399.6 19500.3" />
<circle cx="11200" cy="20000" r="200" /> 
<circle cx="12800" cy="20000" r="200" /> 
<path d="M11000 20000
L10000 20000
" />
<text x="10500" y="20600"
textLength="540" font-size="660" lengthAdjust="spacingAndGlyphs"
text-anchor="middle" opacity="0">1</text>
<path d="M10640 20570
L10350 20570
" />
<path d="M10500 20570
L10500 20070
L10450 20140
L10400 20190
L10350 20210
" />
<path d="M13000 20000
L14000 20000
" />
<text x="13500" y="20600"
textLength="540" font-size="660" lengthAdjust="spacingAndGlyphs"
text-anchor="middle" opacity="0">2</text>
<path d="M13350 20120
L13380 20100
L13420 20070
L13540 20070
L13590 20100
L13610 20120
L13640 20170
L13640 20210
L13610 20290
L13330 20570
L13640 20570
" />
</g>
<g style="fill:#008484; fill-opacity:0.0; 
stroke:#008484; stroke-width:60; stroke-opacity:1; 
stroke-linecap:round; stroke-linejoin:round;">
<text x="12000" y="17920"
textLength="1420" font-size="660" lengthAdjust="spacingAndGlyphs"
text-anchor="middle" opacity="0">JP1</text>
<path d="M11580 17390
L11580 17750
L11550 17820
L11510 17870
L11440 17890
L11390 17890
" />
<path d="M11820 17890
L11820 17390
L12010 17390
L12050 17420
L12080 17440
L12100 17490
L12100 17560
L12080 17610
L12050 17630
L12010 17650
L11820 17650
" />
<path d="M12580 17890
L12290 17890
" />
<path d="M12440 17890
L12440 17390
L12390 17460
L12340 17510
L12290 17530
" />
<text x="12000" y="18830"
textLength="1560" font-size="660" lengthAdjust="spacingAndGlyphs"
text-anchor="middle" opacity="0">PRG</text>
<path d="M11360 18800
L11360 18300
L11550 18300
L11600 18330
L11630 18350
L11650 18400
L11650 18470
L11630 18520
L11600 18540
L11550 18560
L11360 18560
" />
<path d="M12150 18800
L11980 18560
" />
<path d="M11860 18800
L11860 18300
L12050 18300
L12100 18330
L12130 18350
L12150 18400
L12150 18470
L12130 18520
L12100 18540
L12050 18560
L11860 18560
" />
<path d="M12630 18330
L12580 18300
L12510 18300
L12440 18330
L12390 18370
L12360 18420
L12340 18520
L12340 18590
L12360 18680
L12390 18730
L12440 18780
L12510 18800
L12550 18800
L12630 18780
L12650 18750
L12650 18590
L12550 18590
" />
</g>
</g>
<g style="fill:#008484; fill-opacity:0.0; 
stroke:#008484; stroke-width:0; stroke-opacity:1; 
stroke-linecap:round; stroke-linejoin:round;">
<g >
</g>
<g style="fill:#840000; fill-opacity:0.0; 
stroke:#840000; stroke-width:0; stroke-opacity:1; 
stroke-linecap:round; stroke-linejoin:round;">
</g>
<g style="fill:#840000; fill-opacity:0.0; 
stroke:#840000; stroke-width:100; stroke-opacity:1; 
stroke-linecap:round; stroke-linejoin:round;">
<rect x="36500" y="22100" width="2000" height="800" rx="0" />
</g>
<g style="fill:#840000; fill-opacity:0.0; 
stroke:#840000; stroke-width:60; stroke-opacity:1; 
stroke-linecap:round; stroke-linejoin:round;">
<path d="M36500 22500
L36000 22500
" />
<path d="M38500 22500
L39000 22500
" />
</g>
<g style="fill:#008484; fill-opacity:0.0; 
stroke:#008484; stroke-width:60; stroke-opacity:1; 
stroke-linecap:round; stroke-linejoin:round;">
<text x="37500" y="21220"
textLength="1040" font-size="660" lengthAdjust="spacingAndGlyphs"
text-anchor="middle" opacity="0">R2</text>
<path d="M37410 21190
L37250 20950
" />
<path d="M37130 21190
L37130 20690
L37320 20690
L37360 20720
L37390 20740
L37410 20790
L37410 20860
L37390 20910
L37360 20930
L37320 20950
L37130 20950
" />
<path d="M37600 20740
L37630 20720
L37670 20690
L37790 20690
L37840 20720
L37860 20740
L37890 20790
L37890 20830
L37860 20910
L37580 21190
L37890 21190
" />
<text x="37490" y="22720"
textLength="1510" font-size="660" lengthAdjust="spacingAndGlyphs"
text-anchor="middle" opacity="0">10K</text>
<path d="M37140 22690
L36850 22690
" />
<path d="M37000 22690
L37000 22190
L36950 22260
L36900 22310
L36850 22330
" />
<path d="M37450 22190
L37500 22190
L37540 22220
L37570 22240
L37590 22290
L37620 22380
L37620 22500
L37590 22600
L37570 22640
L37540 22670
L37500 22690
L37450 22690
L37400 22670
L37380 22640
L37350 22600
L37330 22500
L37330 22380
L37350 22290
L37380 22240
L37400 22220
L37450 22190
" />
<path d="M37830 22690
L37830 22190
" />
<path d="M38120 22690
L37900 22410
" />
<path d="M38120 22190
L37830 22480
" />
</g>
</g>
<g style="fill:#008484; fill-opacity:0.0; 
stroke:#008484; stroke-width:0; stroke-opacity:1; 
stroke-linecap:round; stroke-linejoin:round;">
<g >
</g>
<g style="fill:#840000; fill-opacity:0.0; 
stroke:#840000; stroke-width:0; stroke-opacity:1; 
stroke-linecap:round; stroke-linejoin:round;">
</g>
<g style="fill:#FFFFC2; fill-opacity:0.0; 
stroke:#FFFFC2; stroke-width:0; stroke-opacity:1; 
stroke-linecap:round; stroke-linejoin:round;">
</g>
<g style="fill:#FFFFC2; fill-opacity:0.6; 
stroke:#FFFFC2; stroke-width:0; stroke-opacity:1; 
stroke-linecap:round; stroke-linejoin:round;">
<rect x="18500" y="15000" width="1000" height="2000" rx="0" />
</g>
<g style="fill:#840000; fill-opacity:0.6; 
stroke:#840000; stroke-width:0; stroke-opacity:1; 
stroke-linecap:round; stroke-linejoin:round;">
</g>
<g style="fill:#840000; fill-opacity:0.0; 
stroke:#840000; stroke-width:100; stroke-opacity:1; 
stroke-linecap:round; stroke-linejoin:round;">
<rect x="18500" y="15000" width="1000" height="2000" rx="0" />
</g>
<g style="fill:#840000; fill-opacity:0.0; 
stroke:#840000; stroke-width:60; stroke-opacity:1; 
stroke-linecap:round; stroke-linejoin:round;">
<circle cx="19000" cy="16500" r="250" /> 
<circle cx="19000" cy="15500" r="250" /> 
</g>
<g style="fill:#840000; fill-opacity:0.0; 
stroke:#840000; stroke-width:100; stroke-opacity:1; 
stroke-linecap:round; stroke-linejoin:round;">
<rect x="18500" y="15000" width="1000" height="2000" rx="0" />
</g>
<g style="fill:#840000; fill-opacity:0.0; 
stroke:#840000; stroke-width:60; stroke-opacity:1; 
stroke-linecap:round; stroke-linejoin:round;">
<path style="fill:#840000; fill-opacity:0.0; 
stroke:#840000; stroke-width:60; stroke-opacity:1; 
stroke-linecap:round; stroke-linejoin:round;fill:none"
d="M 18790,16370
19130,16700
" /> 
<path style="fill:#840000; fill-opacity:0.0; 
stroke:#840000; stroke-width:60; stroke-opacity:1; 
stroke-linecap:round; stroke-linejoin:round;fill:none"
d="M 18790,15370
19130,15700
" /> 
<path style="fill:#840000; fill-opacity:0.0; 
stroke:#840000; stroke-width:60; stroke-opacity:1; 
stroke-linecap:round; stroke-linejoin:round;fill:none"
d="M 18860,16300
19200,16630
" /> 
<path style="fill:#840000; fill-opacity:0.0; 
stroke:#840000; stroke-width:60; stroke-opacity:1; 
stroke-linecap:round; stroke-linejoin:round;fill:none"
d="M 18860,15300
19200,15630
" /> 
<path d="M18500 15500
L17000 15500
" />
<text x="17750" y="15400"
textLength="540" font-size="660" lengthAdjust="spacingAndGlyphs"
text-anchor="middle" opacity="0">1</text>
<path d="M17890 15370
L17600 15370
" />
<path d="M17750 15370
L17750 14870
L17700 14940
L17650 14990
L17600 15010
" />
<path d="M18500 16500
L17000 16500
" />
<text x="17750" y="16400"
textLength="540" font-size="660" lengthAdjust="spacingAndGlyphs"
text-anchor="middle" opacity="0">2</text>
<path d="M17600 15920
L17630 15900
L17670 15870
L17790 15870
L17840 15900
L17860 15920
L17890 15970
L17890 16010
L17860 16090
L17580 16370
L17890 16370
" />
</g>
<g style="fill:#008484; fill-opacity:0.0; 
stroke:#008484; stroke-width:60; stroke-opacity:1; 
stroke-linecap:round; stroke-linejoin:round;">
<text x="20260" y="15850"
textLength="920" font-size="660" lengthAdjust="spacingAndGlyphs"
text-anchor="middle" opacity="0">J1</text>
<path d="M20090 15320
L20090 15680
L20060 15750
L20020 15800
L19950 15820
L19900 15820
" />
<path d="M20590 15820
L20300 15820
" />
<path d="M20450 15820
L20450 15320
L20400 15390
L20350 15440
L20300 15460
" />
<text x="23010" y="16760"
textLength="6420" font-size="660" lengthAdjust="spacingAndGlyphs"
text-anchor="middle" opacity="0">Power Connector</text>
<path d="M19950 16730
L19950 16230
L20140 16230
L20180 16260
L20210 16280
L20230 16330
L20230 16400
L20210 16450
L20180 16470
L20140 16490
L19950 16490
" />
<path d="M20520 16730
L20470 16710
L20450 16680
L20420 16640
L20420 16490
L20450 16450
L20470 16420
L20520 16400
L20590 16400
L20640 16420
L20660 16450
L20680 16490
L20680 16640
L20660 16680
L20640 16710
L20590 16730
L20520 16730
" />
<path d="M20850 16400
L20950 16730
L21040 16490
L21140 16730
L21230 16400
" />
<path d="M21610 16710
L21560 16730
L21470 16730
L21420 16710
L21400 16660
L21400 16470
L21420 16420
L21470 16400
L21560 16400
L21610 16420
L21640 16470
L21640 16520
L21400 16560
" />
<path d="M21850 16730
L21850 16400
" />
<path d="M21850 16490
L21870 16450
L21900 16420
L21950 16400
L21990 16400
" />
<path d="M22830 16680
L22800 16710
L22730 16730
L22680 16730
L22610 16710
L22560 16660
L22540 16610
L22520 16520
L22520 16450
L22540 16350
L22560 16300
L22610 16260
L22680 16230
L22730 16230
L22800 16260
L22830 16280
" />
<path d="M23110 16730
L23060 16710
L23040 16680
L23020 16640
L23020 16490
L23040 16450
L23060 16420
L23110 16400
L23180 16400
L23230 16420
L23260 16450
L23280 16490
L23280 16640
L23260 16680
L23230 16710
L23180 16730
L23110 16730
" />
<path d="M23490 16400
L23490 16730
" />
<path d="M23490 16450
L23520 16420
L23560 16400
L23640 16400
L23680 16420
L23710 16470
L23710 16730
" />
<path d="M23950 16400
L23950 16730
" />
<path d="M23950 16450
L23970 16420
L24020 16400
L24090 16400
L24140 16420
L24160 16470
L24160 16730
" />
<path d="M24590 16710
L24540 16730
L24450 16730
L24400 16710
L24370 16660
L24370 16470
L24400 16420
L24450 16400
L24540 16400
L24590 16420
L24610 16470
L24610 16520
L24370 16560
" />
<path d="M25040 16710
L24990 16730
L24900 16730
L24850 16710
L24830 16680
L24800 16640
L24800 16490
L24830 16450
L24850 16420
L24900 16400
L24990 16400
L25040 16420
" />
<path d="M25180 16400
L25370 16400
" />
<path d="M25260 16230
L25260 16660
L25280 16710
L25330 16730
L25370 16730
" />
<path d="M25610 16730
L25560 16710
L25540 16680
L25520 16640
L25520 16490
L25540 16450
L25560 16420
L25610 16400
L25680 16400
L25730 16420
L25760 16450
L25780 16490
L25780 16640
L25760 16680
L25730 16710
L25680 16730
L25610 16730
" />
<path d="M25990 16730
L25990 16400
" />
<path d="M25990 16490
L26020 16450
L26040 16420
L26090 16400
L26140 16400
" />
</g>
</g>
<g style="fill:#008484; fill-opacity:0.0; 
stroke:#008484; stroke-width:0; stroke-opacity:1; 
stroke-linecap:round; stroke-linejoin:round;">
<g >
</g>
<g style="fill:#840000; fill-opacity:0.0; 
stroke:#840000; stroke-width:0; stroke-opacity:1; 
stroke-linecap:round; stroke-linejoin:round;">
</g>
<g style="fill:#840000; fill-opacity:0.0; 
stroke:#840000; stroke-width:60; stroke-opacity:1; 
stroke-linecap:round; stroke-linejoin:round;">
<path style="fill:#840000; fill-opacity:0.0; 
stroke:#840000; stroke-width:60; stroke-opacity:1; 
stroke-linecap:round; stroke-linejoin:round;fill:none"
d="M 21800,12500
21500,13000
" /> 
<path style="fill:#840000; fill-opacity:0.0; 
stroke:#840000; stroke-width:60; stroke-opacity:1; 
stroke-linecap:round; stroke-linejoin:round;fill:none"
d="M 21500,12000
21500,13000
" /> 
<path style="fill:#840000; fill-opacity:0.0; 
stroke:#840000; stroke-width:60; stroke-opacity:1; 
stroke-linecap:round; stroke-linejoin:round;fill:none"
d="M 21500,13000
21200,12500
" /> 
</g>
<g style="fill:#008484; fill-opacity:0.0; 
stroke:#008484; stroke-width:60; stroke-opacity:1; 
stroke-linecap:round; stroke-linejoin:round;">
<text x="21350" y="13950"
textLength="2060" font-size="660" lengthAdjust="spacingAndGlyphs"
text-anchor="middle" opacity="0">+3V3</text>
<path d="M20460 13730
L20850 13730
" />
<path d="M20650 13920
L20650 13540
" />
<path d="M21040 13420
L21350 13420
L21180 13610
L21250 13610
L21300 13640
L21320 13660
L21350 13710
L21350 13830
L21320 13870
L21300 13900
L21250 13920
L21110 13920
L21060 13900
L21040 13870
" />
<path d="M21490 13420
L21650 13920
L21820 13420
" />
<path d="M21940 13420
L22250 13420
L22080 13610
L22150 13610
L22200 13640
L22230 13660
L22250 13710
L22250 13830
L22230 13870
L22200 13900
L22150 13920
L22010 13920
L21960 13900
L21940 13870
" />
</g>
</g>
<g style="fill:#008484; fill-opacity:0.0; 
stroke:#008484; stroke-width:0; stroke-opacity:1; 
stroke-linecap:round; stroke-linejoin:round;">
<g >
</g>
<g style="fill:#840000; fill-opacity:0.0; 
stroke:#840000; stroke-width:0; stroke-opacity:1; 
stroke-linecap:round; stroke-linejoin:round;">
</g>
<g style="fill:#840000; fill-opacity:0.0; 
stroke:#840000; stroke-width:60; stroke-opacity:1; 
stroke-linecap:round; stroke-linejoin:round;">
<rect x="19500" y="19500" width="13000" height="7000" rx="0" />
<path d="M32500 24500
L35500 24500
" />
</g>
<g style="fill:#008484; fill-opacity:0.0; 
stroke:#008484; stroke-width:60; stroke-opacity:1; 
stroke-linecap:round; stroke-linejoin:round;">
<text x="32100" y="24750"
textLength="1940" font-size="660" lengthAdjust="spacingAndGlyphs"
text-anchor="end" opacity="0">UTXD</text>
<path d="M30300 24220
L30300 24630
L30330 24670
L30350 24700
L30400 24720
L30490 24720
L30540 24700
L30570 24670
L30590 24630
L30590 24220
" />
<path d="M30760 24220
L31040 24220
" />
<path d="M30900 24720
L30900 24220
" />
<path d="M31160 24220
L31490 24720
" />
<path d="M31490 24220
L31160 24720
" />
<path d="M31680 24720
L31680 24220
L31800 24220
L31870 24250
L31920 24290
L31950 24340
L31970 24440
L31970 24510
L31950 24600
L31920 24650
L31870 24700
L31800 24720
L31680 24720
" />
</g>
<g style="fill:#840000; fill-opacity:0.0; 
stroke:#840000; stroke-width:60; stroke-opacity:1; 
stroke-linecap:round; stroke-linejoin:round;">
<text x="34000" y="24400"
textLength="540" font-size="660" lengthAdjust="spacingAndGlyphs"
text-anchor="middle" opacity="0">1</text>
<path d="M34140 24370
L33850 24370
" />
<path d="M34000 24370
L34000 23870
L33950 23940
L33900 23990
L33850 24010
" />
<path d="M19500 24500
L16500 24500
" />
</g>
<g style="fill:#008484; fill-opacity:0.0; 
stroke:#008484; stroke-width:60; stroke-opacity:1; 
stroke-linecap:round; stroke-linejoin:round;">
<text x="19900" y="24750"
textLength="1580" font-size="660" lengthAdjust="spacingAndGlyphs"
text-anchor="start" opacity="0">GND</text>
<path d="M20310 24250
L20260 24220
L20190 24220
L20120 24250
L20070 24290
L20040 24340
L20020 24440
L20020 24510
L20040 24600
L20070 24650
L20120 24700
L20190 24720
L20230 24720
L20310 24700
L20330 24670
L20330 24510
L20230 24510
" />
<path d="M20540 24720
L20540 24220
L20830 24720
L20830 24220
" />
<path d="M21070 24720
L21070 24220
L21190 24220
L21260 24250
L21310 24290
L21330 24340
L21350 24440
L21350 24510
L21330 24600
L21310 24650
L21260 24700
L21190 24720
L21070 24720
" />
</g>
<g style="fill:#840000; fill-opacity:0.0; 
stroke:#840000; stroke-width:60; stroke-opacity:1; 
stroke-linecap:round; stroke-linejoin:round;">
<text x="18000" y="24400"
textLength="540" font-size="660" lengthAdjust="spacingAndGlyphs"
text-anchor="middle" opacity="0">2</text>
<path d="M17850 23920
L17880 23900
L17920 23870
L18040 23870
L18090 23900
L18110 23920
L18140 23970
L18140 24010
L18110 24090
L17830 24370
L18140 24370
" />
<path d="M32500 23500
L35500 23500
" />
</g>
<g style="fill:#008484; fill-opacity:0.0; 
stroke:#008484; stroke-width:60; stroke-opacity:1; 
stroke-linecap:round; stroke-linejoin:round;">
<text x="32100" y="23750"
textLength="2460" font-size="660" lengthAdjust="spacingAndGlyphs"
text-anchor="end" opacity="0">CH_PD</text>
<path d="M30070 23670
L30040 23700
L29970 23720
L29920 23720
L29850 23700
L29800 23650
L29780 23600
L29760 23510
L29760 23440
L29780 23340
L29800 23290
L29850 23250
L29920 23220
L29970 23220
L30040 23250
L30070 23270
" />
<path d="M30280 23720
L30280 23220
" />
<path d="M30280 23460
L30570 23460
" />
<path d="M30570 23720
L30570 23220
" />
<path d="M30680 23770
L31070 23770
" />
<path d="M31180 23720
L31180 23220
L31370 23220
L31420 23250
L31450 23270
L31470 23320
L31470 23390
L31450 23440
L31420 23460
L31370 23480
L31180 23480
" />
<path d="M31680 23720
L31680 23220
L31800 23220
L31870 23250
L31920 23290
L31950 23340
L31970 23440
L31970 23510
L31950 23600
L31920 23650
L31870 23700
L31800 23720
L31680 23720
" />
</g>
<g style="fill:#840000; fill-opacity:0.0; 
stroke:#840000; stroke-width:60; stroke-opacity:1; 
stroke-linecap:round; stroke-linejoin:round;">
<text x="34000" y="23400"
textLength="540" font-size="660" lengthAdjust="spacingAndGlyphs"
text-anchor="middle" opacity="0">3</text>
<path d="M33830 22870
L34140 22870
L33970 23060
L34040 23060
L34090 23090
L34110 23110
L34140 23160
L34140 23280
L34110 23320
L34090 23350
L34040 23370
L33900 23370
L33850 23350
L33830 23320
" />
<path d="M19500 23500
L16500 23500
" />
</g>
<g style="fill:#008484; fill-opacity:0.0; 
stroke:#008484; stroke-width:60; stroke-opacity:1; 
stroke-linecap:round; stroke-linejoin:round;">
<text x="19900" y="23750"
textLength="2300" font-size="660" lengthAdjust="spacingAndGlyphs"
text-anchor="start" opacity="0">GPIO2</text>
<path d="M20310 23250
L20260 23220
L20190 23220
L20120 23250
L20070 23290
L20040 23340
L20020 23440
L20020 23510
L20040 23600
L20070 23650
L20120 23700
L20190 23720
L20230 23720
L20310 23700
L20330 23670
L20330 23510
L20230 23510
" />
<path d="M20540 23720
L20540 23220
L20730 23220
L20780 23250
L20810 23270
L20830 23320
L20830 23390
L20810 23440
L20780 23460
L20730 23480
L20540 23480
" />
<path d="M21040 23720
L21040 23220
" />
<path d="M21380 23220
L21470 23220
L21520 23250
L21570 23290
L21590 23390
L21590 23550
L21570 23650
L21520 23700
L21470 23720
L21380 23720
L21330 23700
L21280 23650
L21260 23550
L21260 23390
L21280 23290
L21330 23250
L21380 23220
" />
<path d="M21780 23270
L21810 23250
L21850 23220
L21970 23220
L22020 23250
L22040 23270
L22070 23320
L22070 23360
L22040 23440
L21760 23720
L22070 23720
" />
</g>
<g style="fill:#840000; fill-opacity:0.0; 
stroke:#840000; stroke-width:60; stroke-opacity:1; 
stroke-linecap:round; stroke-linejoin:round;">
<text x="18000" y="23400"
textLength="540" font-size="660" lengthAdjust="spacingAndGlyphs"
text-anchor="middle" opacity="0">4</text>
<path d="M18090 23040
L18090 23370
" />
<path d="M17970 22850
L17850 23200
L18160 23200
" />
<path d="M32500 22500
L35500 22500
" />
</g>
<g style="fill:#008484; fill-opacity:0.0; 
stroke:#008484; stroke-width:60; stroke-opacity:1; 
stroke-linecap:round; stroke-linejoin:round;">
<text x="32100" y="22750"
textLength="1420" font-size="660" lengthAdjust="spacingAndGlyphs"
text-anchor="end" opacity="0">RST</text>
<path d="M31110 22720
L30950 22480
" />
<path d="M30830 22720
L30830 22220
L31020 22220
L31070 22250
L31090 22270
L31110 22320
L31110 22390
L31090 22440
L31070 22460
L31020 22480
L30830 22480
" />
<path d="M31300 22700
L31370 22720
L31490 22720
L31540 22700
L31570 22670
L31590 22630
L31590 22580
L31570 22530
L31540 22510
L31490 22480
L31400 22460
L31350 22440
L31330 22410
L31300 22360
L31300 22320
L31330 22270
L31350 22250
L31400 22220
L31520 22220
L31590 22250
" />
<path d="M31730 22220
L32020 22220
" />
<path d="M31870 22720
L31870 22220
" />
</g>
<g style="fill:#840000; fill-opacity:0.0; 
stroke:#840000; stroke-width:60; stroke-opacity:1; 
stroke-linecap:round; stroke-linejoin:round;">
<text x="34000" y="22400"
textLength="540" font-size="660" lengthAdjust="spacingAndGlyphs"
text-anchor="middle" opacity="0">5</text>
<path d="M34110 21870
L33880 21870
L33850 22110
L33880 22090
L33920 22060
L34040 22060
L34090 22090
L34110 22110
L34140 22160
L34140 22280
L34110 22320
L34090 22350
L34040 22370
L33920 22370
L33880 22350
L33850 22320
" />
<path d="M19500 22500
L16500 22500
" />
</g>
<g style="fill:#008484; fill-opacity:0.0; 
stroke:#008484; stroke-width:60; stroke-opacity:1; 
stroke-linecap:round; stroke-linejoin:round;">
<text x="19900" y="22750"
textLength="2300" font-size="660" lengthAdjust="spacingAndGlyphs"
text-anchor="start" opacity="0">GPIO0</text>
<path d="M20310 22250
L20260 22220
L20190 22220
L20120 22250
L20070 22290
L20040 22340
L20020 22440
L20020 22510
L20040 22600
L20070 22650
L20120 22700
L20190 22720
L20230 22720
L20310 22700
L20330 22670
L20330 22510
L20230 22510
" />
<path d="M20540 22720
L20540 22220
L20730 22220
L20780 22250
L20810 22270
L20830 22320
L20830 22390
L20810 22440
L20780 22460
L20730 22480
L20540 22480
" />
<path d="M21040 22720
L21040 22220
" />
<path d="M21380 22220
L21470 22220
L21520 22250
L21570 22290
L21590 22390
L21590 22550
L21570 22650
L21520 22700
L21470 22720
L21380 22720
L21330 22700
L21280 22650
L21260 22550
L21260 22390
L21280 22290
L21330 22250
L21380 22220
" />
<path d="M21900 22220
L21950 22220
L22000 22250
L22020 22270
L22040 22320
L22070 22410
L22070 22530
L22040 22630
L22020 22670
L22000 22700
L21950 22720
L21900 22720
L21850 22700
L21830 22670
L21810 22630
L21780 22530
L21780 22410
L21810 22320
L21830 22270
L21850 22250
L21900 22220
" />
</g>
<g style="fill:#840000; fill-opacity:0.0; 
stroke:#840000; stroke-width:60; stroke-opacity:1; 
stroke-linecap:round; stroke-linejoin:round;">
<text x="18000" y="22400"
textLength="540" font-size="660" lengthAdjust="spacingAndGlyphs"
text-anchor="middle" opacity="0">6</text>
<path d="M18090 21870
L18000 21870
L17950 21900
L17920 21920
L17880 21990
L17850 22090
L17850 22280
L17880 22320
L17900 22350
L17950 22370
L18040 22370
L18090 22350
L18110 22320
L18140 22280
L18140 22160
L18110 22110
L18090 22090
L18040 22060
L17950 22060
L17900 22090
L17880 22110
L17850 22160
" />
<path d="M32500 21500
L35500 21500
" />
</g>
<g style="fill:#008484; fill-opacity:0.0; 
stroke:#008484; stroke-width:60; stroke-opacity:1; 
stroke-linecap:round; stroke-linejoin:round;">
<text x="32100" y="21750"
textLength="1490" font-size="660" lengthAdjust="spacingAndGlyphs"
text-anchor="end" opacity="0">VCC</text>
<path d="M30680 21220
L30850 21720
L31020 21220
" />
<path d="M31470 21670
L31450 21700
L31370 21720
L31330 21720
L31260 21700
L31210 21650
L31180 21600
L31160 21510
L31160 21440
L31180 21340
L31210 21290
L31260 21250
L31330 21220
L31370 21220
L31450 21250
L31470 21270
" />
<path d="M31970 21670
L31950 21700
L31870 21720
L31830 21720
L31760 21700
L31710 21650
L31680 21600
L31660 21510
L31660 21440
L31680 21340
L31710 21290
L31760 21250
L31830 21220
L31870 21220
L31950 21250
L31970 21270
" />
</g>
<g style="fill:#840000; fill-opacity:0.0; 
stroke:#840000; stroke-width:60; stroke-opacity:1; 
stroke-linecap:round; stroke-linejoin:round;">
<text x="34000" y="21400"
textLength="540" font-size="660" lengthAdjust="spacingAndGlyphs"
text-anchor="middle" opacity="0">7</text>
<path d="M33830 20870
L34160 20870
L33950 21370
" />
<path d="M19500 21500
L16500 21500
" />
</g>
<g style="fill:#008484; fill-opacity:0.0; 
stroke:#008484; stroke-width:60; stroke-opacity:1; 
stroke-linecap:round; stroke-linejoin:round;">
<text x="19900" y="21750"
textLength="2060" font-size="660" lengthAdjust="spacingAndGlyphs"
text-anchor="start" opacity="0">URXD</text>
<path d="M20040 21220
L20040 21630
L20070 21670
L20090 21700
L20140 21720
L20230 21720
L20280 21700
L20310 21670
L20330 21630
L20330 21220
" />
<path d="M20850 21720
L20690 21480
" />
<path d="M20570 21720
L20570 21220
L20760 21220
L20810 21250
L20830 21270
L20850 21320
L20850 21390
L20830 21440
L20810 21460
L20760 21480
L20570 21480
" />
<path d="M21020 21220
L21350 21720
" />
<path d="M21350 21220
L21020 21720
" />
<path d="M21540 21720
L21540 21220
L21660 21220
L21730 21250
L21780 21290
L21810 21340
L21830 21440
L21830 21510
L21810 21600
L21780 21650
L21730 21700
L21660 21720
L21540 21720
" />
</g>
<g style="fill:#840000; fill-opacity:0.0; 
stroke:#840000; stroke-width:60; stroke-opacity:1; 
stroke-linecap:round; stroke-linejoin:round;">
<text x="18000" y="21400"
textLength="540" font-size="660" lengthAdjust="spacingAndGlyphs"
text-anchor="middle" opacity="0">8</text>
<path d="M17950 21090
L17900 21060
L17880 21040
L17850 20990
L17850 20970
L17880 20920
L17900 20900
L17950 20870
L18040 20870
L18090 20900
L18110 20920
L18140 20970
L18140 20990
L18110 21040
L18090 21060
L18040 21090
L17950 21090
L17900 21110
L17880 21130
L17850 21180
L17850 21280
L17880 21320
L17900 21350
L17950 21370
L18040 21370
L18090 21350
L18110 21320
L18140 21280
L18140 21180
L18110 21130
L18090 21110
L18040 21090
" />
</g>
<g style="fill:#008484; fill-opacity:0.0; 
stroke:#008484; stroke-width:60; stroke-opacity:1; 
stroke-linecap:round; stroke-linejoin:round;">
<text x="26000" y="18070"
textLength="1060" font-size="660" lengthAdjust="spacingAndGlyphs"
text-anchor="middle" opacity="0">U1</text>
<path d="M25610 17540
L25610 17950
L25640 17990
L25660 18020
L25710 18040
L25800 18040
L25850 18020
L25880 17990
L25900 17950
L25900 17540
" />
<path d="M26400 18040
L26110 18040
" />
<path d="M26260 18040
L26260 17540
L26210 17610
L26160 17660
L26110 17680
" />
<text x="25990" y="18980"
textLength="4870" font-size="660" lengthAdjust="spacingAndGlyphs"
text-anchor="middle" opacity="0">ESP-01v090</text>
<path d="M23700 18690
L23870 18690
" />
<path d="M23940 18950
L23700 18950
L23700 18450
L23940 18450
" />
<path d="M24130 18930
L24200 18950
L24320 18950
L24370 18930
L24390 18900
L24410 18860
L24410 18810
L24390 18760
L24370 18740
L24320 18710
L24220 18690
L24180 18670
L24150 18640
L24130 18590
L24130 18550
L24150 18500
L24180 18480
L24220 18450
L24340 18450
L24410 18480
" />
<path d="M24630 18950
L24630 18450
L24820 18450
L24870 18480
L24890 18500
L24910 18550
L24910 18620
L24890 18670
L24870 18690
L24820 18710
L24630 18710
" />
<path d="M25130 18760
L25510 18760
" />
<path d="M25840 18450
L25890 18450
L25940 18480
L25960 18500
L25990 18550
L26010 18640
L26010 18760
L25990 18860
L25960 18900
L25940 18930
L25890 18950
L25840 18950
L25790 18930
L25770 18900
L25750 18860
L25720 18760
L25720 18640
L25750 18550
L25770 18500
L25790 18480
L25840 18450
" />
<path d="M26490 18950
L26200 18950
" />
<path d="M26340 18950
L26340 18450
L26290 18520
L26250 18570
L26200 18590
" />
<path d="M26650 18620
L26770 18950
L26890 18620
" />
<path d="M27180 18450
L27220 18450
L27270 18480
L27290 18500
L27320 18550
L27340 18640
L27340 18760
L27320 18860
L27290 18900
L27270 18930
L27220 18950
L27180 18950
L27130 18930
L27100 18900
L27080 18860
L27060 18760
L27060 18640
L27080 18550
L27100 18500
L27130 18480
L27180 18450
" />
<path d="M27580 18950
L27680 18950
L27720 18930
L27750 18900
L27790 18830
L27820 18740
L27820 18550
L27790 18500
L27770 18480
L27720 18450
L27630 18450
L27580 18480
L27560 18500
L27530 18550
L27530 18670
L27560 18710
L27580 18740
L27630 18760
L27720 18760
L27770 18740
L27790 18710
L27820 18670
" />
<path d="M28130 18450
L28180 18450
L28220 18480
L28250 18500
L28270 18550
L28290 18640
L28290 18760
L28270 18860
L28250 18900
L28220 18930
L28180 18950
L28130 18950
L28080 18930
L28060 18900
L28030 18860
L28010 18760
L28010 18640
L28030 18550
L28060 18500
L28080 18480
L28130 18450
" />
</g>
</g>
<g style="fill:#008484; fill-opacity:0.0; 
stroke:#008484; stroke-width:0; stroke-opacity:1; 
stroke-linecap:round; stroke-linejoin:round;">
<g >
</g>
<g style="fill:#840000; fill-opacity:0.0; 
stroke:#840000; stroke-width:0; stroke-opacity:1; 
stroke-linecap:round; stroke-linejoin:round;">
</g>
<g style="fill:#840000; fill-opacity:0.0; 
stroke:#840000; stroke-width:100; stroke-opacity:1; 
stroke-linecap:round; stroke-linejoin:round;">
<rect x="12000" y="23100" width="2000" height="800" rx="0" />
</g>
<g style="fill:#840000; fill-opacity:0.0; 
stroke:#840000; stroke-width:60; stroke-opacity:1; 
stroke-linecap:round; stroke-linejoin:round;">
<path d="M12000 23500
L11500 23500
" />
<path d="M14000 23500
L14500 23500
" />
</g>
<g style="fill:#008484; fill-opacity:0.0; 
stroke:#008484; stroke-width:60; stroke-opacity:1; 
stroke-linecap:round; stroke-linejoin:round;">
<text x="13000" y="22720"
textLength="1040" font-size="660" lengthAdjust="spacingAndGlyphs"
text-anchor="middle" opacity="0">R1</text>
<path d="M12910 22690
L12750 22450
" />
<path d="M12630 22690
L12630 22190
L12820 22190
L12860 22220
L12890 22240
L12910 22290
L12910 22360
L12890 22410
L12860 22430
L12820 22450
L12630 22450
" />
<path d="M13390 22690
L13100 22690
" />
<path d="M13250 22690
L13250 22190
L13200 22260
L13150 22310
L13100 22330
" />
<text x="12990" y="23720"
textLength="1510" font-size="660" lengthAdjust="spacingAndGlyphs"
text-anchor="middle" opacity="0">10K</text>
<path d="M12640 23690
L12350 23690
" />
<path d="M12500 23690
L12500 23190
L12450 23260
L12400 23310
L12350 23330
" />
<path d="M12950 23190
L13000 23190
L13040 23220
L13070 23240
L13090 23290
L13120 23380
L13120 23500
L13090 23600
L13070 23640
L13040 23670
L13000 23690
L12950 23690
L12900 23670
L12880 23640
L12850 23600
L12830 23500
L12830 23380
L12850 23290
L12880 23240
L12900 23220
L12950 23190
" />
<path d="M13330 23690
L13330 23190
" />
<path d="M13620 23690
L13400 23410
" />
<path d="M13620 23190
L13330 23480
" />
</g>
</g>
<g style="fill:#008484; fill-opacity:0.0; 
stroke:#008484; stroke-width:60; stroke-opacity:1; 
stroke-linecap:round; stroke-linejoin:round;">
</g>
<g style="fill:#008400; fill-opacity:0.0; 
stroke:#008400; stroke-width:60; stroke-opacity:1; 
stroke-linecap:round; stroke-linejoin:round;">
<path d="M35500 22500
L36000 22500
" />
<path d="M14000 20000
L14000 22500
" />
<path d="M35500 23500
L42000 23500
" />
<path d="M8500 24500
L10000 24500
" />
<path d="M44000 24500
L35500 24500
" />
<path d="M8500 23500
L11500 23500
" />
<path d="M14500 23500
L16500 23500
" />
<path d="M16500 22500
L14000 22500
" />
<path d="M10000 24500
L16500 24500
" />
<path d="M8500 21500
L16500 21500
" />
<path d="M21500 12000
L21500 10000
" />
<path d="M23500 11000
L23500 9500
" />
<path d="M32500 16000
L35500 16000
" />
<path d="M10000 20000
L10000 24500
" />
<path d="M35500 21500
L42000 21500
" />
<path d="M32500 15000
L35500 15000
" />
<path d="M32500 17000
L35500 17000
" />
<path d="M32500 18000
L35500 18000
" />
<path d="M39000 22500
L42000 22500
" />
<path d="M42000 22500
L42000 23500
" />
<path d="M32500 14000
L35500 14000
" />
<path d="M42000 23500
L44000 23500
" />
<path d="M42000 21500
L42000 22500
" />
<path d="M32500 13000
L35500 13000
" />
</g>
<g style="fill:#840000; fill-opacity:0.0; 
stroke:#840000; stroke-width:60; stroke-opacity:1; 
stroke-linecap:round; stroke-linejoin:round;">
<text x="32190" y="15250"
textLength="2850" font-size="660" lengthAdjust="spacingAndGlyphs"
text-anchor="end" opacity="0">FTDI_TX</text>
<path d="M29660 14960
L29490 14960
" />
<path d="M29490 15220
L29490 14720
L29730 14720
" />
<path d="M29850 14720
L30130 14720
" />
<path d="M29990 15220
L29990 14720
" />
<path d="M30300 15220
L30300 14720
L30420 14720
L30490 14750
L30540 14790
L30560 14840
L30580 14940
L30580 15010
L30560 15100
L30540 15150
L30490 15200
L30420 15220
L30300 15220
" />
<path d="M30800 15220
L30800 14720
" />
<path d="M30920 15270
L31300 15270
" />
<path d="M31350 14720
L31630 14720
" />
<path d="M31490 15220
L31490 14720
" />
<path d="M31750 14720
L32080 15220
" />
<path d="M32080 14720
L31750 15220
" />
</g>
<g style="fill:#840000; fill-opacity:0.0; 
stroke:#840000; stroke-width:100; stroke-opacity:1; 
stroke-linecap:round; stroke-linejoin:round;">
<path style="fill:#840000; fill-opacity:0.0; 
stroke:#840000; stroke-width:100; stroke-opacity:1; 
stroke-linecap:round; stroke-linejoin:round;fill:none"
d="M 32500,15000
32250,14560
29230,14560
29230,15000
29230,15440
32250,15440
Z" /> 
</g>
<g style="fill:#840000; fill-opacity:0.0; 
stroke:#840000; stroke-width:60; stroke-opacity:1; 
stroke-linecap:round; stroke-linejoin:round;">
<text x="32190" y="16250"
textLength="3420" font-size="660" lengthAdjust="spacingAndGlyphs"
text-anchor="end" opacity="0">FTDI_VCC</text>
<path d="M29080 15960
L28920 15960
" />
<path d="M28920 16220
L28920 15720
L29160 15720
" />
<path d="M29270 15720
L29560 15720
" />
<path d="M29420 16220
L29420 15720
" />
<path d="M29730 16220
L29730 15720
L29850 15720
L29920 15750
L29960 15790
L29990 15840
L30010 15940
L30010 16010
L29990 16100
L29960 16150
L29920 16200
L29850 16220
L29730 16220
" />
<path d="M30230 16220
L30230 15720
" />
<path d="M30350 16270
L30730 16270
" />
<path d="M30770 15720
L30940 16220
L31110 15720
" />
<path d="M31560 16170
L31540 16200
L31460 16220
L31420 16220
L31350 16200
L31300 16150
L31270 16100
L31250 16010
L31250 15940
L31270 15840
L31300 15790
L31350 15750
L31420 15720
L31460 15720
L31540 15750
L31560 15770
" />
<path d="M32060 16170
L32040 16200
L31960 16220
L31920 16220
L31850 16200
L31800 16150
L31770 16100
L31750 16010
L31750 15940
L31770 15840
L31800 15790
L31850 15750
L31920 15720
L31960 15720
L32040 15750
L32060 15770
" />
</g>
<g style="fill:#840000; fill-opacity:0.0; 
stroke:#840000; stroke-width:100; stroke-opacity:1; 
stroke-linecap:round; stroke-linejoin:round;">
<path style="fill:#840000; fill-opacity:0.0; 
stroke:#840000; stroke-width:100; stroke-opacity:1; 
stroke-linecap:round; stroke-linejoin:round;fill:none"
d="M 32500,16000
32250,15560
28660,15560
28660,16000
28660,16440
32250,16440
Z" /> 
</g>
<g style="fill:#840000; fill-opacity:0.0; 
stroke:#840000; stroke-width:60; stroke-opacity:1; 
stroke-linecap:round; stroke-linejoin:round;">
<text x="32190" y="14250"
textLength="2960" font-size="660" lengthAdjust="spacingAndGlyphs"
text-anchor="end" opacity="0">FTDI_RX</text>
<path d="M29540 13960
L29370 13960
" />
<path d="M29370 14220
L29370 13720
L29610 13720
" />
<path d="M29730 13720
L30010 13720
" />
<path d="M29870 14220
L29870 13720
" />
<path d="M30180 14220
L30180 13720
L30300 13720
L30370 13750
L30420 13790
L30440 13840
L30460 13940
L30460 14010
L30440 14100
L30420 14150
L30370 14200
L30300 14220
L30180 14220
" />
<path d="M30680 14220
L30680 13720
" />
<path d="M30800 14270
L31180 14270
" />
<path d="M31580 14220
L31420 13980
" />
<path d="M31300 14220
L31300 13720
L31490 13720
L31540 13750
L31560 13770
L31580 13820
L31580 13890
L31560 13940
L31540 13960
L31490 13980
L31300 13980
" />
<path d="M31750 13720
L32080 14220
" />
<path d="M32080 13720
L31750 14220
" />
</g>
<g style="fill:#840000; fill-opacity:0.0; 
stroke:#840000; stroke-width:100; stroke-opacity:1; 
stroke-linecap:round; stroke-linejoin:round;">
<path style="fill:#840000; fill-opacity:0.0; 
stroke:#840000; stroke-width:100; stroke-opacity:1; 
stroke-linecap:round; stroke-linejoin:round;fill:none"
d="M 32500,14000
32250,13560
29120,13560
29120,14000
29120,14440
32250,14440
Z" /> 
</g>
<g style="fill:#840000; fill-opacity:0.0; 
stroke:#840000; stroke-width:60; stroke-opacity:1; 
stroke-linecap:round; stroke-linejoin:round;">
<text x="16690" y="16750"
textLength="1580" font-size="660" lengthAdjust="spacingAndGlyphs"
text-anchor="end" opacity="0">GND</text>
<path d="M15510 16250
L15460 16220
L15390 16220
L15320 16250
L15270 16290
L15250 16340
L15230 16440
L15230 16510
L15250 16600
L15270 16650
L15320 16700
L15390 16720
L15440 16720
L15510 16700
L15540 16670
L15540 16510
L15440 16510
" />
<path d="M15750 16720
L15750 16220
L16040 16720
L16040 16220
" />
<path d="M16270 16720
L16270 16220
L16390 16220
L16460 16250
L16510 16290
L16540 16340
L16560 16440
L16560 16510
L16540 16600
L16510 16650
L16460 16700
L16390 16720
L16270 16720
" />
</g>
<g style="fill:#840000; fill-opacity:0.0; 
stroke:#840000; stroke-width:100; stroke-opacity:1; 
stroke-linecap:round; stroke-linejoin:round;">
<path style="fill:#840000; fill-opacity:0.0; 
stroke:#840000; stroke-width:100; stroke-opacity:1; 
stroke-linecap:round; stroke-linejoin:round;fill:none"
d="M 17000,16500
16750,16060
15000,16060
15000,16500
15000,16940
16750,16940
Z" /> 
</g>
<g style="fill:#840000; fill-opacity:0.0; 
stroke:#840000; stroke-width:60; stroke-opacity:1; 
stroke-linecap:round; stroke-linejoin:round;">
<text x="16690" y="15750"
textLength="1490" font-size="660" lengthAdjust="spacingAndGlyphs"
text-anchor="end" opacity="0">VCC</text>
<path d="M15270 15220
L15440 15720
L15610 15220
" />
<path d="M16060 15670
L16040 15700
L15960 15720
L15920 15720
L15850 15700
L15800 15650
L15770 15600
L15750 15510
L15750 15440
L15770 15340
L15800 15290
L15850 15250
L15920 15220
L15960 15220
L16040 15250
L16060 15270
" />
<path d="M16560 15670
L16540 15700
L16460 15720
L16420 15720
L16350 15700
L16300 15650
L16270 15600
L16250 15510
L16250 15440
L16270 15340
L16300 15290
L16350 15250
L16420 15220
L16460 15220
L16540 15250
L16560 15270
" />
</g>
<g style="fill:#840000; fill-opacity:0.0; 
stroke:#840000; stroke-width:100; stroke-opacity:1; 
stroke-linecap:round; stroke-linejoin:round;">
<path style="fill:#840000; fill-opacity:0.0; 
stroke:#840000; stroke-width:100; stroke-opacity:1; 
stroke-linecap:round; stroke-linejoin:round;fill:none"
d="M 17000,15500
16750,15060
15090,15060
15090,15500
15090,15940
16750,15940
Z" /> 
</g>
<g style="fill:#840000; fill-opacity:0.0; 
stroke:#840000; stroke-width:60; stroke-opacity:1; 
stroke-linecap:round; stroke-linejoin:round;">
<text x="32190" y="17250"
textLength="1420" font-size="660" lengthAdjust="spacingAndGlyphs"
text-anchor="end" opacity="0">CTS</text>
<path d="M31200 17170
L31180 17200
L31110 17220
L31060 17220
L30990 17200
L30940 17150
L30920 17100
L30890 17010
L30890 16940
L30920 16840
L30940 16790
L30990 16750
L31060 16720
L31110 16720
L31180 16750
L31200 16770
" />
<path d="M31350 16720
L31630 16720
" />
<path d="M31490 17220
L31490 16720
" />
<path d="M31770 17200
L31850 17220
L31960 17220
L32010 17200
L32040 17170
L32060 17130
L32060 17080
L32040 17030
L32010 17010
L31960 16980
L31870 16960
L31820 16940
L31800 16910
L31770 16860
L31770 16820
L31800 16770
L31820 16750
L31870 16720
L31990 16720
L32060 16750
" />
</g>
<g style="fill:#840000; fill-opacity:0.0; 
stroke:#840000; stroke-width:100; stroke-opacity:1; 
stroke-linecap:round; stroke-linejoin:round;">
<path style="fill:#840000; fill-opacity:0.0; 
stroke:#840000; stroke-width:100; stroke-opacity:1; 
stroke-linecap:round; stroke-linejoin:round;fill:none"
d="M 32500,17000
32250,16560
30660,16560
30660,17000
30660,17440
32250,17440
Z" /> 
</g>
<g style="fill:#840000; fill-opacity:0.0; 
stroke:#840000; stroke-width:60; stroke-opacity:1; 
stroke-linecap:round; stroke-linejoin:round;">
<text x="32190" y="18250"
textLength="1580" font-size="660" lengthAdjust="spacingAndGlyphs"
text-anchor="end" opacity="0">GND</text>
<path d="M31010 17750
L30960 17720
L30890 17720
L30820 17750
L30770 17790
L30750 17840
L30730 17940
L30730 18010
L30750 18100
L30770 18150
L30820 18200
L30890 18220
L30940 18220
L31010 18200
L31040 18170
L31040 18010
L30940 18010
" />
<path d="M31250 18220
L31250 17720
L31540 18220
L31540 17720
" />
<path d="M31770 18220
L31770 17720
L31890 17720
L31960 17750
L32010 17790
L32040 17840
L32060 17940
L32060 18010
L32040 18100
L32010 18150
L31960 18200
L31890 18220
L31770 18220
" />
</g>
<g style="fill:#840000; fill-opacity:0.0; 
stroke:#840000; stroke-width:100; stroke-opacity:1; 
stroke-linecap:round; stroke-linejoin:round;">
<path style="fill:#840000; fill-opacity:0.0; 
stroke:#840000; stroke-width:100; stroke-opacity:1; 
stroke-linecap:round; stroke-linejoin:round;fill:none"
d="M 32500,18000
32250,17560
30500,17560
30500,18000
30500,18440
32250,18440
Z" /> 
</g>
<g style="fill:#840000; fill-opacity:0.0; 
stroke:#840000; stroke-width:60; stroke-opacity:1; 
stroke-linecap:round; stroke-linejoin:round;">
<text x="32190" y="13250"
textLength="1440" font-size="660" lengthAdjust="spacingAndGlyphs"
text-anchor="end" opacity="0">DTR</text>
<path d="M30890 13220
L30890 12720
L31010 12720
L31080 12750
L31130 12790
L31160 12840
L31180 12940
L31180 13010
L31160 13100
L31130 13150
L31080 13200
L31010 13220
L30890 13220
" />
<path d="M31320 12720
L31610 12720
" />
<path d="M31460 13220
L31460 12720
" />
<path d="M32060 13220
L31890 12980
" />
<path d="M31770 13220
L31770 12720
L31960 12720
L32010 12750
L32040 12770
L32060 12820
L32060 12890
L32040 12940
L32010 12960
L31960 12980
L31770 12980
" />
</g>
<g style="fill:#840000; fill-opacity:0.0; 
stroke:#840000; stroke-width:100; stroke-opacity:1; 
stroke-linecap:round; stroke-linejoin:round;">
<path style="fill:#840000; fill-opacity:0.0; 
stroke:#840000; stroke-width:100; stroke-opacity:1; 
stroke-linecap:round; stroke-linejoin:round;fill:none"
d="M 32500,13000
32250,12560
30640,12560
30640,13000
30640,13440
32250,13440
Z" /> 
</g>
<g style="fill:#840000; fill-opacity:0.0; 
stroke:#840000; stroke-width:60; stroke-opacity:1; 
stroke-linecap:round; stroke-linejoin:round;">
<g transform="rotate(-90 21500 9690)">
<text x="21500" y="9940"
textLength="1490" font-size="660" lengthAdjust="spacingAndGlyphs"
text-anchor="start" opacity="0">VCC</text>
</g>
<path d="M21220 9610
L21720 9440
L21220 9270
" />
<path d="M21670 8820
L21700 8850
L21720 8920
L21720 8960
L21700 9040
L21650 9080
L21600 9110
L21510 9130
L21440 9130
L21340 9110
L21290 9080
L21250 9040
L21220 8960
L21220 8920
L21250 8850
L21270 8820
" />
<path d="M21670 8320
L21700 8350
L21720 8420
L21720 8460
L21700 8540
L21650 8580
L21600 8610
L21510 8630
L21440 8630
L21340 8610
L21290 8580
L21250 8540
L21220 8460
L21220 8420
L21250 8350
L21270 8320
" />
</g>
<g style="fill:#840000; fill-opacity:0.0; 
stroke:#840000; stroke-width:100; stroke-opacity:1; 
stroke-linecap:round; stroke-linejoin:round;">
<path style="fill:#840000; fill-opacity:0.0; 
stroke:#840000; stroke-width:100; stroke-opacity:1; 
stroke-linecap:round; stroke-linejoin:round;fill:none"
d="M 21500,10000
21940,9750
21940,8090
21500,8090
21060,8090
21060,9750
Z" /> 
</g>
<g style="fill:#840000; fill-opacity:0.0; 
stroke:#840000; stroke-width:60; stroke-opacity:1; 
stroke-linecap:round; stroke-linejoin:round;">
<g transform="rotate(-90 23500 11310)">
<text x="23500" y="11560"
textLength="1580" font-size="660" lengthAdjust="spacingAndGlyphs"
text-anchor="end" opacity="0">GND</text>
</g>
<path d="M23250 12480
L23220 12530
L23220 12600
L23250 12670
L23290 12720
L23340 12740
L23440 12760
L23510 12760
L23600 12740
L23650 12720
L23700 12670
L23720 12600
L23720 12550
L23700 12480
L23670 12450
L23510 12450
L23510 12550
" />
<path d="M23720 12240
L23220 12240
L23720 11950
L23220 11950
" />
<path d="M23720 11720
L23220 11720
L23220 11600
L23250 11530
L23290 11480
L23340 11450
L23440 11430
L23510 11430
L23600 11450
L23650 11480
L23700 11530
L23720 11600
L23720 11720
" />
</g>
<g style="fill:#840000; fill-opacity:0.0; 
stroke:#840000; stroke-width:100; stroke-opacity:1; 
stroke-linecap:round; stroke-linejoin:round;">
<path style="fill:#840000; fill-opacity:0.0; 
stroke:#840000; stroke-width:100; stroke-opacity:1; 
stroke-linecap:round; stroke-linejoin:round;fill:none"
d="M 23500,11000
23060,11250
23060,13000
23500,13000
23940,13000
23940,11250
Z" /> 
</g>
<g style="fill:#840000; fill-opacity:0.0; 
stroke:#840000; stroke-width:60; stroke-opacity:1; 
stroke-linecap:round; stroke-linejoin:round;">
<text x="8190" y="21750"
textLength="2850" font-size="660" lengthAdjust="spacingAndGlyphs"
text-anchor="end" opacity="0">FTDI_TX</text>
<path d="M5660 21460
L5490 21460
" />
<path d="M5490 21720
L5490 21220
L5730 21220
" />
<path d="M5850 21220
L6130 21220
" />
<path d="M5990 21720
L5990 21220
" />
<path d="M6300 21720
L6300 21220
L6420 21220
L6490 21250
L6540 21290
L6560 21340
L6580 21440
L6580 21510
L6560 21600
L6540 21650
L6490 21700
L6420 21720
L6300 21720
" />
<path d="M6800 21720
L6800 21220
" />
<path d="M6920 21770
L7300 21770
" />
<path d="M7350 21220
L7630 21220
" />
<path d="M7490 21720
L7490 21220
" />
<path d="M7750 21220
L8080 21720
" />
<path d="M8080 21220
L7750 21720
" />
</g>
<g style="fill:#840000; fill-opacity:0.0; 
stroke:#840000; stroke-width:100; stroke-opacity:1; 
stroke-linecap:round; stroke-linejoin:round;">
<path style="fill:#840000; fill-opacity:0.0; 
stroke:#840000; stroke-width:100; stroke-opacity:1; 
stroke-linecap:round; stroke-linejoin:round;fill:none"
d="M 8500,21500
8250,21060
5230,21060
5230,21500
5230,21940
8250,21940
Z" /> 
</g>
<g style="fill:#840000; fill-opacity:0.0; 
stroke:#840000; stroke-width:60; stroke-opacity:1; 
stroke-linecap:round; stroke-linejoin:round;">
<text x="44310" y="24750"
textLength="2960" font-size="660" lengthAdjust="spacingAndGlyphs"
text-anchor="start" opacity="0">FTDI_RX</text>
<path d="M44620 24460
L44450 24460
" />
<path d="M44450 24720
L44450 24220
L44690 24220
" />
<path d="M44810 24220
L45100 24220
" />
<path d="M44950 24720
L44950 24220
" />
<path d="M45260 24720
L45260 24220
L45380 24220
L45450 24250
L45500 24290
L45530 24340
L45550 24440
L45550 24510
L45530 24600
L45500 24650
L45450 24700
L45380 24720
L45260 24720
" />
<path d="M45760 24720
L45760 24220
" />
<path d="M45880 24770
L46260 24770
" />
<path d="M46670 24720
L46500 24480
" />
<path d="M46380 24720
L46380 24220
L46570 24220
L46620 24250
L46640 24270
L46670 24320
L46670 24390
L46640 24440
L46620 24460
L46570 24480
L46380 24480
" />
<path d="M46840 24220
L47170 24720
" />
<path d="M47170 24220
L46840 24720
" />
</g>
<g style="fill:#840000; fill-opacity:0.0; 
stroke:#840000; stroke-width:100; stroke-opacity:1; 
stroke-linecap:round; stroke-linejoin:round;">
<path style="fill:#840000; fill-opacity:0.0; 
stroke:#840000; stroke-width:100; stroke-opacity:1; 
stroke-linecap:round; stroke-linejoin:round;fill:none"
d="M 44000,24500
44250,24940
47380,24940
47380,24500
47380,24060
44250,24060
Z" /> 
</g>
<g style="fill:#840000; fill-opacity:0.0; 
stroke:#840000; stroke-width:60; stroke-opacity:1; 
stroke-linecap:round; stroke-linejoin:round;">
<text x="44310" y="23750"
textLength="1490" font-size="660" lengthAdjust="spacingAndGlyphs"
text-anchor="start" opacity="0">VCC</text>
<path d="M44380 23220
L44550 23720
L44720 23220
" />
<path d="M45170 23670
L45140 23700
L45070 23720
L45030 23720
L44950 23700
L44910 23650
L44880 23600
L44860 23510
L44860 23440
L44880 23340
L44910 23290
L44950 23250
L45030 23220
L45070 23220
L45140 23250
L45170 23270
" />
<path d="M45670 23670
L45640 23700
L45570 23720
L45530 23720
L45450 23700
L45410 23650
L45380 23600
L45360 23510
L45360 23440
L45380 23340
L45410 23290
L45450 23250
L45530 23220
L45570 23220
L45640 23250
L45670 23270
" />
</g>
<g style="fill:#840000; fill-opacity:0.0; 
stroke:#840000; stroke-width:100; stroke-opacity:1; 
stroke-linecap:round; stroke-linejoin:round;">
<path style="fill:#840000; fill-opacity:0.0; 
stroke:#840000; stroke-width:100; stroke-opacity:1; 
stroke-linecap:round; stroke-linejoin:round;fill:none"
d="M 44000,23500
44250,23940
45910,23940
45910,23500
45910,23060
44250,23060
Z" /> 
</g>
<g style="fill:#840000; fill-opacity:0.0; 
stroke:#840000; stroke-width:60; stroke-opacity:1; 
stroke-linecap:round; stroke-linejoin:round;">
<text x="8190" y="23750"
textLength="1490" font-size="660" lengthAdjust="spacingAndGlyphs"
text-anchor="end" opacity="0">VCC</text>
<path d="M6770 23220
L6940 23720
L7110 23220
" />
<path d="M7560 23670
L7540 23700
L7460 23720
L7420 23720
L7350 23700
L7300 23650
L7270 23600
L7250 23510
L7250 23440
L7270 23340
L7300 23290
L7350 23250
L7420 23220
L7460 23220
L7540 23250
L7560 23270
" />
<path d="M8060 23670
L8040 23700
L7960 23720
L7920 23720
L7850 23700
L7800 23650
L7770 23600
L7750 23510
L7750 23440
L7770 23340
L7800 23290
L7850 23250
L7920 23220
L7960 23220
L8040 23250
L8060 23270
" />
</g>
<g style="fill:#840000; fill-opacity:0.0; 
stroke:#840000; stroke-width:100; stroke-opacity:1; 
stroke-linecap:round; stroke-linejoin:round;">
<path style="fill:#840000; fill-opacity:0.0; 
stroke:#840000; stroke-width:100; stroke-opacity:1; 
stroke-linecap:round; stroke-linejoin:round;fill:none"
d="M 8500,23500
8250,23060
6590,23060
6590,23500
6590,23940
8250,23940
Z" /> 
</g>
<g style="fill:#840000; fill-opacity:0.0; 
stroke:#840000; stroke-width:60; stroke-opacity:1; 
stroke-linecap:round; stroke-linejoin:round;">
<text x="8190" y="24750"
textLength="1580" font-size="660" lengthAdjust="spacingAndGlyphs"
text-anchor="end" opacity="0">GND</text>
<path d="M7010 24250
L6960 24220
L6890 24220
L6820 24250
L6770 24290
L6750 24340
L6730 24440
L6730 24510
L6750 24600
L6770 24650
L6820 24700
L6890 24720
L6940 24720
L7010 24700
L7040 24670
L7040 24510
L6940 24510
" />
<path d="M7250 24720
L7250 24220
L7540 24720
L7540 24220
" />
<path d="M7770 24720
L7770 24220
L7890 24220
L7960 24250
L8010 24290
L8040 24340
L8060 24440
L8060 24510
L8040 24600
L8010 24650
L7960 24700
L7890 24720
L7770 24720
" />
</g>
<g style="fill:#840000; fill-opacity:0.0; 
stroke:#840000; stroke-width:100; stroke-opacity:1; 
stroke-linecap:round; stroke-linejoin:round;">
<path style="fill:#840000; fill-opacity:0.0; 
stroke:#840000; stroke-width:100; stroke-opacity:1; 
stroke-linecap:round; stroke-linejoin:round;fill:none"
d="M 8500,24500
8250,24060
6500,24060
6500,24500
6500,24940
8250,24940
Z" /> 
</g>
<g style="fill:#840000; fill-opacity:0.0; 
stroke:#840000; stroke-width:0; stroke-opacity:1; 
stroke-linecap:round; stroke-linejoin:round;">
</g>
<g style="fill:#008400; fill-opacity:0.0; 
stroke:#008400; stroke-width:0; stroke-opacity:1; 
stroke-linecap:round; stroke-linejoin:round;">
</g>
<g style="fill:#008400; fill-opacity:1.0; 
stroke:#008400; stroke-width:100; stroke-opacity:1; 
stroke-linecap:round; stroke-linejoin:round;">
<circle cx="10000" cy="24500" r="200" /> 
</g>
<g style="fill:#008400; fill-opacity:1.0; 
stroke:#008400; stroke-width:0; stroke-opacity:1; 
stroke-linecap:round; stroke-linejoin:round;">
</g>
<g style="fill:#008400; fill-opacity:1.0; 
stroke:#008400; stroke-width:100; stroke-opacity:1; 
stroke-linecap:round; stroke-linejoin:round;">
<circle cx="42000" cy="23500" r="200" /> 
</g>
<g style="fill:#008400; fill-opacity:1.0; 
stroke:#008400; stroke-width:0; stroke-opacity:1; 
stroke-linecap:round; stroke-linejoin:round;">
</g>
<g style="fill:#008400; fill-opacity:1.0; 
stroke:#008400; stroke-width:100; stroke-opacity:1; 
stroke-linecap:round; stroke-linejoin:round;">
<circle cx="42000" cy="22500" r="200" /> 
</g> 
</svg>
